<svg version="1.1" viewBox="0.0 0.0 640.2230971128608 940.503937007874" fill="none" stroke="none" stroke-linecap="square" stroke-miterlimit="10" xmlns:xlink="http://www.w3.org/1999/xlink" xmlns="http://www.w3.org/2000/svg"><clipPath id="p.0"><path d="m0 0l640.2231 0l0 940.50397l-640.2231 0l0 -940.50397z" clip-rule="nonzero"/></clipPath><g clip-path="url(#p.0)"><path fill="#ffffff" d="m0 0l640.2231 0l0 940.50397l-640.2231 0z" fill-rule="evenodd"/><path fill="#d9ead3" d="m125.085304 563.56854l0 0c0 -3.8893433 3.1529465 -7.0422974 7.0423203 -7.0422974l375.9626 0c1.8677673 0 3.6589966 0.74194336 4.9796753 2.062622c1.3206787 1.3207397 2.062683 3.1119385 2.062683 4.9796753l0 61.03351c0 3.8893433 -3.1529846 7.0422974 -7.0423584 7.0422974l-375.9626 0c-3.8893738 0 -7.0423203 -3.152954 -7.0423203 -7.0422974z" fill-rule="evenodd"/><path stroke="#274e13" stroke-width="1.0" stroke-linejoin="round" stroke-linecap="butt" d="m125.085304 563.56854l0 0c0 -3.8893433 3.1529465 -7.0422974 7.0423203 -7.0422974l375.9626 0c1.8677673 0 3.6589966 0.74194336 4.9796753 2.062622c1.3206787 1.3207397 2.062683 3.1119385 2.062683 4.9796753l0 61.03351c0 3.8893433 -3.1529846 7.0422974 -7.0423584 7.0422974l-375.9626 0c-3.8893738 0 -7.0423203 -3.152954 -7.0423203 -7.0422974z" fill-rule="evenodd"/><path fill="#274e13" d="m276.88553 590.83344q-0.125 -1.015625 -0.96875 -1.5625q-0.84375 -0.5625 -2.078125 -0.5625q-0.90625 0 -1.578125 0.296875q-0.671875 0.28125 -1.046875 0.796875q-0.375 0.515625 -0.375 1.15625q0 0.546875 0.265625 0.9375q0.265625 0.390625 0.671875 0.640625q0.40625 0.25 0.859375 0.421875q0.453125 0.15625 0.828125 0.25l1.375 0.375q0.53125 0.140625 1.1875 0.390625q0.65625 0.234375 1.25 0.65625q0.609375 0.421875 1.0 1.078125q0.390625 0.65625 0.390625 1.609375q0 1.109375 -0.578125 2.0q-0.578125 0.875 -1.671875 1.40625q-1.09375 0.515625 -2.65625 0.515625q-1.453125 0 -2.515625 -0.46875q-1.0625 -0.46875 -1.671875 -1.3125q-0.609375 -0.84375 -0.6875 -1.953125l1.6875 0q0.078125 0.765625 0.53125 1.265625q0.453125 0.5 1.140625 0.75q0.703125 0.234375 1.515625 0.234375q0.9375 0 1.6875 -0.296875q0.75 -0.3125 1.1875 -0.859375q0.4375 -0.5625 0.4375 -1.296875q0 -0.6875 -0.375 -1.109375q-0.375 -0.421875 -1.0 -0.6875q-0.609375 -0.265625 -1.328125 -0.46875l-1.671875 -0.46875q-1.59375 -0.453125 -2.515625 -1.296875q-0.921875 -0.859375 -0.921875 -2.234375q0 -1.140625 0.609375 -1.984375q0.625 -0.859375 1.671875 -1.328125q1.046875 -0.46875 2.34375 -0.46875q1.3125 0 2.328125 0.46875q1.03125 0.46875 1.625 1.28125q0.609375 0.796875 0.640625 1.828125l-1.59375 0zm5.273834 13.984375q-0.390625 0 -0.703125 -0.0625q-0.3125 -0.0625 -0.4375 -0.125l0.40625 -1.375q0.5625 0.140625 1.0 0.09375q0.4375 -0.03125 0.78125 -0.375q0.34375 -0.34375 0.625 -1.125l0.296875 -0.796875l-3.765625 -10.21875l1.6875 0l2.8125 8.109375l0.109375 0l2.8125 -8.109375l1.6875 0l-4.3125 11.65625q-0.296875 0.78125 -0.734375 1.296875q-0.421875 0.53125 -1.0 0.78125q-0.5625 0.25 -1.265625 0.25zm10.950775 -9.9375l0 6.125l-1.5625 0l0 -10.171875l1.5 0l0 1.578125l0.140625 0q0.359375 -0.765625 1.078125 -1.234375q0.734375 -0.484375 1.890625 -0.484375q1.03125 0 1.796875 0.421875q0.78125 0.421875 1.203125 1.28125q0.4375 0.84375 0.4375 2.140625l0 6.46875l-1.5625 0l0 -6.359375q0 -1.203125 -0.625 -1.875q-0.625 -0.671875 -1.703125 -0.671875q-0.75 0 -1.34375 0.328125q-0.578125 0.328125 -0.921875 0.953125q-0.328125 0.609375 -0.328125 1.5zm13.480774 6.34375q-1.421875 0 -2.46875 -0.671875q-1.03125 -0.6875 -1.59375 -1.875q-0.546875 -1.1875 -0.546875 -2.703125q0 -1.546875 0.5625 -2.734375q0.578125 -1.203125 1.609375 -1.875q1.03125 -0.671875 2.40625 -0.671875q1.078125 0 1.9375 0.40625q0.859375 0.390625 1.40625 1.109375q0.5625 0.71875 0.6875 1.671875l-1.5625 0q-0.171875 -0.703125 -0.796875 -1.234375q-0.609375 -0.546875 -1.640625 -0.546875q-0.90625 0 -1.59375 0.484375q-0.6875 0.46875 -1.078125 1.328125q-0.375 0.859375 -0.375 2.0q0 1.1875 0.375 2.0625q0.375 0.875 1.0625 1.359375q0.6875 0.484375 1.609375 0.484375q0.609375 0 1.109375 -0.203125q0.5 -0.21875 0.84375 -0.609375q0.34375 -0.40625 0.484375 -0.96875l1.5625 0q-0.125 0.90625 -0.65625 1.625q-0.515625 0.71875 -1.375 1.140625q-0.84375 0.421875 -1.96875 0.421875zm18.740051 -8.109375l-1.40625 0.390625q-0.125 -0.34375 -0.390625 -0.671875q-0.25 -0.34375 -0.6875 -0.5625q-0.4375 -0.21875 -1.125 -0.21875q-0.9375 0 -1.5625 0.421875q-0.609375 0.421875 -0.609375 1.078125q0 0.59375 0.421875 0.9375q0.421875 0.328125 1.328125 0.546875l1.515625 0.375q1.359375 0.328125 2.03125 1.015625q0.671875 0.671875 0.671875 1.75q0 0.859375 -0.5 1.5625q-0.5 0.6875 -1.40625 1.09375q-0.890625 0.390625 -2.078125 0.390625q-1.546875 0 -2.578125 -0.671875q-1.015625 -0.6875 -1.28125 -1.984375l1.484375 -0.375q0.203125 0.828125 0.796875 1.234375q0.59375 0.40625 1.5625 0.40625q1.09375 0 1.734375 -0.453125q0.640625 -0.46875 0.640625 -1.125q0 -0.53125 -0.375 -0.890625q-0.359375 -0.375 -1.125 -0.546875l-1.703125 -0.390625q-1.390625 -0.34375 -2.046875 -1.03125q-0.65625 -0.703125 -0.65625 -1.765625q0 -0.859375 0.484375 -1.515625q0.484375 -0.65625 1.328125 -1.03125q0.859375 -0.390625 1.921875 -0.390625q1.515625 0 2.375 0.671875q0.875 0.65625 1.234375 1.75zm6.8147583 8.109375q-1.46875 0 -2.546875 -0.65625q-1.0625 -0.65625 -1.640625 -1.828125q-0.5625 -1.171875 -0.5625 -2.75q0 -1.5625 0.5625 -2.75q0.578125 -1.203125 1.609375 -1.875q1.03125 -0.671875 2.40625 -0.671875q0.796875 0 1.578125 0.265625q0.78125 0.265625 1.40625 0.859375q0.640625 0.59375 1.015625 1.578125q0.375 0.96875 0.375 2.390625l0 0.65625l-7.84375 0l0 -1.34375l6.265625 0q0 -0.859375 -0.34375 -1.53125q-0.34375 -0.6875 -0.96875 -1.078125q-0.625 -0.390625 -1.484375 -0.390625q-0.921875 0 -1.609375 0.46875q-0.671875 0.453125 -1.046875 1.1875q-0.359375 0.734375 -0.359375 1.578125l0 0.90625q0 1.140625 0.390625 1.953125q0.40625 0.796875 1.125 1.21875q0.71875 0.40625 1.671875 0.40625q0.609375 0 1.109375 -0.171875q0.5 -0.1875 0.859375 -0.53125q0.375 -0.359375 0.5625 -0.890625l1.515625 0.421875q-0.234375 0.765625 -0.796875 1.34375q-0.5625 0.578125 -1.390625 0.90625q-0.828125 0.328125 -1.859375 0.328125zm6.5996704 -0.21875l0 -10.171875l1.5 0l0 1.53125l0.109375 0q0.28125 -0.75 1.0 -1.21875q0.734375 -0.46875 1.65625 -0.46875q0.171875 0 0.421875 0q0.265625 0 0.390625 0.015625l0 1.59375q-0.078125 -0.015625 -0.359375 -0.0625q-0.28125 -0.046875 -0.59375 -0.046875q-0.734375 0 -1.328125 0.3125q-0.578125 0.3125 -0.90625 0.859375q-0.328125 0.53125 -0.328125 1.21875l0 6.4375l-1.5625 0zm15.573883 -10.171875l-3.765625 10.171875l-1.578125 0l-3.765625 -10.171875l1.6875 0l2.8125 8.109375l0.109375 0l2.8125 -8.109375l1.6875 0zm5.9701843 10.390625q-1.46875 0 -2.546875 -0.65625q-1.0625 -0.65625 -1.640625 -1.828125q-0.5625 -1.171875 -0.5625 -2.75q0 -1.5625 0.5625 -2.75q0.578125 -1.203125 1.609375 -1.875q1.03125 -0.671875 2.40625 -0.671875q0.796875 0 1.578125 0.265625q0.78125 0.265625 1.40625 0.859375q0.640625 0.59375 1.015625 1.578125q0.375 0.96875 0.375 2.390625l0 0.65625l-7.84375 0l0 -1.34375l6.265625 0q0 -0.859375 -0.34375 -1.53125q-0.34375 -0.6875 -0.96875 -1.078125q-0.625 -0.390625 -1.484375 -0.390625q-0.921875 0 -1.609375 0.46875q-0.671875 0.453125 -1.046875 1.1875q-0.359375 0.734375 -0.359375 1.578125l0 0.90625q0 1.140625 0.390625 1.953125q0.40625 0.796875 1.125 1.21875q0.71875 0.40625 1.671875 0.40625q0.609375 0 1.109375 -0.171875q0.5 -0.1875 0.859375 -0.53125q0.375 -0.359375 0.5625 -0.890625l1.515625 0.421875q-0.234375 0.765625 -0.796875 1.34375q-0.5625 0.578125 -1.390625 0.90625q-0.828125 0.328125 -1.859375 0.328125zm6.5996704 -0.21875l0 -10.171875l1.5 0l0 1.53125l0.109375 0q0.28125 -0.75 1.0 -1.21875q0.734375 -0.46875 1.65625 -0.46875q0.171875 0 0.421875 0q0.265625 0 0.390625 0.015625l0 1.59375q-0.078125 -0.015625 -0.359375 -0.0625q-0.28125 -0.046875 -0.59375 -0.046875q-0.734375 0 -1.328125 0.3125q-0.578125 0.3125 -0.90625 0.859375q-0.328125 0.53125 -0.328125 1.21875l0 6.4375l-1.5625 0z" fill-rule="nonzero"/><path fill="#d9ead3" d="m125.085304 439.7326l0 0c0 -3.8893738 3.1529465 -7.042328 7.0423203 -7.042328l375.9626 0c1.8677673 0 3.6589966 0.7419739 4.9796753 2.0626526c1.3206787 1.3207092 2.062683 3.1119385 2.062683 4.9796753l0 61.033478c0 3.8893738 -3.1529846 7.042328 -7.0423584 7.042328l-375.9626 0c-3.8893738 0 -7.0423203 -3.152954 -7.0423203 -7.042328z" fill-rule="evenodd"/><path stroke="#274e13" stroke-width="1.0" stroke-linejoin="round" stroke-linecap="butt" d="m125.085304 439.7326l0 0c0 -3.8893738 3.1529465 -7.042328 7.0423203 -7.042328l375.9626 0c1.8677673 0 3.6589966 0.7419739 4.9796753 2.0626526c1.3206787 1.3207092 2.062683 3.1119385 2.062683 4.9796753l0 61.033478c0 3.8893738 -3.1529846 7.042328 -7.0423584 7.042328l-375.9626 0c-3.8893738 0 -7.0423203 -3.152954 -7.0423203 -7.042328z" fill-rule="evenodd"/><path fill="#274e13" d="m234.10634 465.05997l0 -1.453125l10.171875 0l0 1.453125l-4.265625 0l0 12.109375l-1.640625 0l0 -12.109375l-4.265625 0zm11.448959 12.109375l0 -10.171875l1.5 0l0 1.53125l0.109375 0q0.28125 -0.75 1.0 -1.21875q0.734375 -0.46875 1.65625 -0.46875q0.171875 0 0.421875 0q0.265625 0 0.390625 0.015625l0 1.59375q-0.078125 -0.015625 -0.359375 -0.0625q-0.28125 -0.046875 -0.59375 -0.046875q-0.734375 0 -1.328125 0.3125q-0.578125 0.3125 -0.90625 0.859375q-0.328125 0.53125 -0.328125 1.21875l0 6.4375l-1.5625 0zm9.927567 0.234375q-0.96875 0 -1.765625 -0.359375q-0.78125 -0.375 -1.25 -1.0625q-0.453125 -0.703125 -0.453125 -1.703125q0 -0.875 0.34375 -1.421875q0.34375 -0.546875 0.921875 -0.859375q0.578125 -0.3125 1.265625 -0.46875q0.703125 -0.15625 1.421875 -0.25q0.92185974 -0.109375 1.4999847 -0.171875q0.578125 -0.0625 0.84375 -0.21875q0.28125 -0.15625 0.28125 -0.53125l0 -0.046875q0 -0.984375 -0.546875 -1.53125q-0.53125 -0.546875 -1.609375 -0.546875q-1.1093597 0 -1.7499847 0.5q-0.640625 0.484375 -0.890625 1.046875l-1.484375 -0.53125q0.390625 -0.921875 1.046875 -1.4375q0.671875 -0.53125 1.46875 -0.734375q0.796875 -0.21875 1.5624847 -0.21875q0.484375 0 1.125 0.125q0.640625 0.109375 1.234375 0.46875q0.609375 0.359375 1.0 1.078125q0.40625 0.71875 0.40625 1.9375l0 6.703125l-1.5625 0l0 -1.375l-0.078125 0q-0.171875 0.328125 -0.546875 0.703125q-0.359375 0.375 -0.984375 0.640625q-0.609375 0.265625 -1.4999847 0.265625zm0.25 -1.40625q0.92185974 0 1.5624847 -0.359375q0.640625 -0.359375 0.96875 -0.9375q0.328125 -0.578125 0.328125 -1.21875l0 -1.421875q-0.109375 0.109375 -0.453125 0.21875q-0.328125 0.09375 -0.765625 0.15625q-0.421875 0.0625 -0.828125 0.125q-0.40625 0.046875 -0.65623474 0.078125q-0.609375 0.078125 -1.140625 0.265625q-0.53125 0.171875 -0.859375 0.515625q-0.3125 0.34375 -0.3125 0.9375q0 0.8125 0.609375 1.234375q0.609375 0.40625 1.546875 0.40625zm8.848892 -4.953125l0 6.125l-1.5625 0l0 -10.171875l1.5 0l0 1.578125l0.140625 0q0.359375 -0.765625 1.078125 -1.234375q0.734375 -0.484375 1.890625 -0.484375q1.03125 0 1.796875 0.421875q0.78125 0.421875 1.203125 1.28125q0.4375 0.84375 0.4375 2.140625l0 6.46875l-1.5625 0l0 -6.359375q0 -1.203125 -0.625 -1.875q-0.625 -0.671875 -1.703125 -0.671875q-0.75 0 -1.34375 0.328125q-0.578125 0.328125 -0.921875 0.953125q-0.328125 0.609375 -0.328125 1.5zm16.55893 -1.765625l-1.40625 0.390625q-0.125 -0.34375 -0.390625 -0.671875q-0.25 -0.34375 -0.6875 -0.5625q-0.4375 -0.21875 -1.125 -0.21875q-0.9375 0 -1.5625 0.421875q-0.609375 0.421875 -0.609375 1.078125q0 0.59375 0.421875 0.9375q0.421875 0.328125 1.328125 0.546875l1.515625 0.375q1.359375 0.328125 2.03125 1.015625q0.671875 0.671875 0.671875 1.75q0 0.859375 -0.5 1.5625q-0.5 0.6875 -1.40625 1.09375q-0.890625 0.390625 -2.078125 0.390625q-1.546875 0 -2.578125 -0.671875q-1.015625 -0.6875 -1.28125 -1.984375l1.484375 -0.375q0.203125 0.828125 0.796875 1.234375q0.59375 0.40625 1.5625 0.40625q1.09375 0 1.734375 -0.453125q0.640625 -0.46875 0.640625 -1.125q0 -0.53125 -0.375 -0.890625q-0.359375 -0.375 -1.125 -0.546875l-1.703125 -0.390625q-1.390625 -0.34375 -2.046875 -1.03125q-0.65625 -0.703125 -0.65625 -1.765625q0 -0.859375 0.484375 -1.515625q0.484375 -0.65625 1.328125 -1.03125q0.859375 -0.390625 1.921875 -0.390625q1.515625 0 2.375 0.671875q0.875 0.65625 1.234375 1.75zm2.5491333 11.703125l0 -13.984375l1.5 0l0 1.609375l0.1875 0q0.171875 -0.265625 0.484375 -0.671875q0.3125 -0.421875 0.890625 -0.75q0.578125 -0.328125 1.5625 -0.328125q1.296875 0 2.265625 0.640625q0.984375 0.640625 1.53125 1.828125q0.5625 1.171875 0.5625 2.78125q0 1.625 -0.5625 2.8125q-0.546875 1.171875 -1.515625 1.828125q-0.96875 0.640625 -2.25 0.640625q-0.984375 0 -1.578125 -0.328125q-0.578125 -0.328125 -0.90625 -0.75q-0.3125 -0.421875 -0.484375 -0.703125l-0.125 0l0 5.375l-1.5625 0zm1.53125 -8.90625q0 1.15625 0.328125 2.046875q0.34375 0.875 0.984375 1.375q0.65625 0.484375 1.609375 0.484375q0.96875 0 1.625 -0.515625q0.671875 -0.53125 1.0 -1.40625q0.328125 -0.890625 0.328125 -1.984375q0 -1.0625 -0.328125 -1.921875q-0.3125 -0.875 -0.984375 -1.375q-0.65625 -0.515625 -1.640625 -0.515625q-0.96875 0 -1.625 0.484375q-0.640625 0.484375 -0.96875 1.34375q-0.328125 0.84375 -0.328125 1.984375zm13.962555 5.3125q-1.375 0 -2.421875 -0.65625q-1.03125 -0.65625 -1.609375 -1.828125q-0.578125 -1.1875 -0.578125 -2.765625q0 -1.59375 0.578125 -2.78125q0.578125 -1.1875 1.609375 -1.84375q1.046875 -0.65625 2.421875 -0.65625q1.375 0 2.40625 0.65625q1.046875 0.65625 1.625 1.84375q0.578125 1.1875 0.578125 2.78125q0 1.578125 -0.578125 2.765625q-0.578125 1.171875 -1.625 1.828125q-1.03125 0.65625 -2.40625 0.65625zm0 -1.40625q1.046875 0 1.71875 -0.53125q0.6875 -0.546875 1.0 -1.421875q0.328125 -0.875 0.328125 -1.890625q0 -1.03125 -0.328125 -1.90625q-0.3125 -0.875 -1.0 -1.421875q-0.671875 -0.546875 -1.71875 -0.546875q-1.046875 0 -1.71875 0.546875q-0.671875 0.546875 -1.0 1.421875q-0.328125 0.875 -0.328125 1.90625q0 1.015625 0.328125 1.890625q0.328125 0.875 1.0 1.421875q0.671875 0.53125 1.71875 0.53125zm7.0052795 1.1875l0 -10.171875l1.5 0l0 1.53125l0.109375 0q0.28125 -0.75 1.0 -1.21875q0.734375 -0.46875 1.65625 -0.46875q0.171875 0 0.421875 0q0.265625 0 0.390625 0.015625l0 1.59375q-0.078125 -0.015625 -0.359375 -0.0625q-0.28125 -0.046875 -0.59375 -0.046875q-0.734375 0 -1.328125 0.3125q-0.578125 0.3125 -0.90625 0.859375q-0.328125 0.53125 -0.328125 1.21875l0 6.4375l-1.5625 0zm12.001434 -10.171875l0 1.328125l-5.28125 0l0 -1.328125l5.28125 0zm-3.734375 -2.4375l1.5625 0l0 9.6875q0 0.671875 0.1875 1.0q0.203125 0.328125 0.5 0.4375q0.3125 0.109375 0.65625 0.109375q0.265625 0 0.421875 -0.03125q0.171875 -0.03125 0.265625 -0.046875l0.328125 1.40625q-0.15625 0.046875 -0.453125 0.109375q-0.28125 0.0625 -0.71875 0.0625q-0.65625 0 -1.296875 -0.28125q-0.625 -0.28125 -1.046875 -0.859375q-0.40625 -0.59375 -0.40625 -1.46875l0 -10.125zm11.343842 16.421875l0 -13.984375l1.5 0l0 1.609375l0.1875 0q0.171875 -0.265625 0.484375 -0.671875q0.3125 -0.421875 0.890625 -0.75q0.578125 -0.328125 1.5625 -0.328125q1.296875 0 2.265625 0.640625q0.984375 0.640625 1.53125 1.828125q0.5625 1.171875 0.5625 2.78125q0 1.625 -0.5625 2.8125q-0.546875 1.171875 -1.515625 1.828125q-0.96875 0.640625 -2.25 0.640625q-0.984375 0 -1.578125 -0.328125q-0.578125 -0.328125 -0.90625 -0.75q-0.3125 -0.421875 -0.484375 -0.703125l-0.125 0l0 5.375l-1.5625 0zm1.53125 -8.90625q0 1.15625 0.328125 2.046875q0.34375 0.875 0.984375 1.375q0.65625 0.484375 1.609375 0.484375q0.96875 0 1.625 -0.515625q0.671875 -0.53125 1.0 -1.40625q0.328125 -0.890625 0.328125 -1.984375q0 -1.0625 -0.328125 -1.921875q-0.3125 -0.875 -0.984375 -1.375q-0.65625 -0.515625 -1.640625 -0.515625q-0.96875 0 -1.625 0.484375q-0.640625 0.484375 -0.96875 1.34375q-0.328125 0.84375 -0.328125 1.984375zm9.837555 5.09375l0 -10.171875l1.5 0l0 1.53125l0.109375 0q0.28125 -0.75 1.0 -1.21875q0.734375 -0.46875 1.65625 -0.46875q0.171875 0 0.421875 0q0.265625 0 0.390625 0.015625l0 1.59375q-0.078125 -0.015625 -0.359375 -0.0625q-0.28125 -0.046875 -0.59375 -0.046875q-0.734375 0 -1.328125 0.3125q-0.578125 0.3125 -0.90625 0.859375q-0.328125 0.53125 -0.328125 1.21875l0 6.4375l-1.5625 0zm10.75 0.21875q-1.375 0 -2.421875 -0.65625q-1.03125 -0.65625 -1.609375 -1.828125q-0.578125 -1.1875 -0.578125 -2.765625q0 -1.59375 0.578125 -2.78125q0.578125 -1.1875 1.609375 -1.84375q1.046875 -0.65625 2.421875 -0.65625q1.375 0 2.40625 0.65625q1.046875 0.65625 1.625 1.84375q0.578125 1.1875 0.578125 2.78125q0 1.578125 -0.578125 2.765625q-0.578125 1.171875 -1.625 1.828125q-1.03125 0.65625 -2.40625 0.65625zm0 -1.40625q1.046875 0 1.71875 -0.53125q0.6875 -0.546875 1.0 -1.421875q0.328125 -0.875 0.328125 -1.890625q0 -1.03125 -0.328125 -1.90625q-0.3125 -0.875 -1.0 -1.421875q-0.671875 -0.546875 -1.71875 -0.546875q-1.046875 0 -1.71875 0.546875q-0.671875 0.546875 -1.0 1.421875q-0.328125 0.875 -0.328125 1.90625q0 1.015625 0.328125 1.890625q0.328125 0.875 1.0 1.421875q0.671875 0.53125 1.71875 0.53125zm11.427185 -8.984375l0 1.328125l-5.28125 0l0 -1.328125l5.28125 0zm-3.734375 -2.4375l1.5625 0l0 9.6875q0 0.671875 0.1875 1.0q0.203125 0.328125 0.5 0.4375q0.3125 0.109375 0.65625 0.109375q0.265625 0 0.421875 -0.03125q0.171875 -0.03125 0.265625 -0.046875l0.328125 1.40625q-0.15625 0.046875 -0.453125 0.109375q-0.28125 0.0625 -0.71875 0.0625q-0.65625 0 -1.296875 -0.28125q-0.625 -0.28125 -1.046875 -0.859375q-0.40625 -0.59375 -0.40625 -1.46875l0 -10.125zm10.115601 12.828125q-1.375 0 -2.421875 -0.65625q-1.03125 -0.65625 -1.609375 -1.828125q-0.578125 -1.1875 -0.578125 -2.765625q0 -1.59375 0.578125 -2.78125q0.578125 -1.1875 1.609375 -1.84375q1.046875 -0.65625 2.421875 -0.65625q1.375 0 2.40625 0.65625q1.046875 0.65625 1.625 1.84375q0.578125 1.1875 0.578125 2.78125q0 1.578125 -0.578125 2.765625q-0.578125 1.171875 -1.625 1.828125q-1.03125 0.65625 -2.40625 0.65625zm0 -1.40625q1.046875 0 1.71875 -0.53125q0.6875 -0.546875 1.0 -1.421875q0.328125 -0.875 0.328125 -1.890625q0 -1.03125 -0.328125 -1.90625q-0.3125 -0.875 -1.0 -1.421875q-0.671875 -0.546875 -1.71875 -0.546875q-1.046875 0 -1.71875 0.546875q-0.671875 0.546875 -1.0 1.421875q-0.328125 0.875 -0.328125 1.90625q0 1.015625 0.328125 1.890625q0.328125 0.875 1.0 1.421875q0.671875 0.53125 1.71875 0.53125zm11.13031 1.40625q-1.421875 0 -2.46875 -0.671875q-1.03125 -0.6875 -1.59375 -1.875q-0.546875 -1.1875 -0.546875 -2.703125q0 -1.546875 0.5625 -2.734375q0.578125 -1.203125 1.609375 -1.875q1.03125 -0.671875 2.40625 -0.671875q1.078125 0 1.9375 0.40625q0.859375 0.390625 1.40625 1.109375q0.5625 0.71875 0.6875 1.671875l-1.5625 0q-0.171875 -0.703125 -0.796875 -1.234375q-0.609375 -0.546875 -1.640625 -0.546875q-0.90625 0 -1.59375 0.484375q-0.6875 0.46875 -1.078125 1.328125q-0.375 0.859375 -0.375 2.0q0 1.1875 0.375 2.0625q0.375 0.875 1.0625 1.359375q0.6875 0.484375 1.609375 0.484375q0.609375 0 1.109375 -0.203125q0.5 -0.21875 0.84375 -0.609375q0.34375 -0.40625 0.484375 -0.96875l1.5625 0q-0.125 0.90625 -0.65625 1.625q-0.515625 0.71875 -1.375 1.140625q-0.84375 0.421875 -1.96875 0.421875zm10.414764 0q-1.375 0 -2.421875 -0.65625q-1.03125 -0.65625 -1.609375 -1.828125q-0.578125 -1.1875 -0.578125 -2.765625q0 -1.59375 0.578125 -2.78125q0.578125 -1.1875 1.609375 -1.84375q1.046875 -0.65625 2.421875 -0.65625q1.375 0 2.40625 0.65625q1.046875 0.65625 1.625 1.84375q0.578125 1.1875 0.578125 2.78125q0 1.578125 -0.578125 2.765625q-0.578125 1.171875 -1.625 1.828125q-1.03125 0.65625 -2.40625 0.65625zm0 -1.40625q1.046875 0 1.71875 -0.53125q0.6875 -0.546875 1.0 -1.421875q0.328125 -0.875 0.328125 -1.890625q0 -1.03125 -0.328125 -1.90625q-0.3125 -0.875 -1.0 -1.421875q-0.671875 -0.546875 -1.71875 -0.546875q-1.046875 0 -1.71875 0.546875q-0.671875 0.546875 -1.0 1.421875q-0.328125 0.875 -0.328125 1.90625q0 1.015625 0.328125 1.890625q0.328125 0.875 1.0 1.421875q0.671875 0.53125 1.71875 0.53125zm8.56778 -12.375l0 13.5625l-1.5625 0l0 -13.5625l1.5625 0zm10.066254 5.671875l-1.40625 0.390625q-0.125 -0.34375 -0.390625 -0.671875q-0.25 -0.34375 -0.6875 -0.5625q-0.4375 -0.21875 -1.125 -0.21875q-0.9375 0 -1.5625 0.421875q-0.609375 0.421875 -0.609375 1.078125q0 0.59375 0.421875 0.9375q0.421875 0.328125 1.328125 0.546875l1.515625 0.375q1.359375 0.328125 2.03125 1.015625q0.671875 0.671875 0.671875 1.75q0 0.859375 -0.5 1.5625q-0.5 0.6875 -1.40625 1.09375q-0.890625 0.390625 -2.078125 0.390625q-1.546875 0 -2.578125 -0.671875q-1.015625 -0.6875 -1.28125 -1.984375l1.484375 -0.375q0.203125 0.828125 0.796875 1.234375q0.59375 0.40625 1.5625 0.40625q1.09375 0 1.734375 -0.453125q0.640625 -0.46875 0.640625 -1.125q0 -0.53125 -0.375 -0.890625q-0.359375 -0.375 -1.125 -0.546875l-1.703125 -0.390625q-1.390625 -0.34375 -2.046875 -1.03125q-0.65625 -0.703125 -0.65625 -1.765625q0 -0.859375 0.484375 -1.515625q0.484375 -0.65625 1.328125 -1.03125q0.859375 -0.390625 1.921875 -0.390625q1.515625 0 2.375 0.671875q0.875 0.65625 1.234375 1.75z" fill-rule="nonzero"/><path fill="#d9ead3" d="m125.085304 315.89667l0 0c0 -3.8893738 3.1529465 -7.042328 7.0423203 -7.042328l375.9626 0c1.8677673 0 3.6589966 0.74194336 4.9796753 2.0626526c1.3206787 1.3206787 2.062683 3.111908 2.062683 4.9796753l0 61.033447c0 3.8893738 -3.1529846 7.042328 -7.0423584 7.042328l-375.9626 0c-3.8893738 0 -7.0423203 -3.152954 -7.0423203 -7.042328z" fill-rule="evenodd"/><path stroke="#274e13" stroke-width="1.0" stroke-linejoin="round" stroke-linecap="butt" d="m125.085304 315.89667l0 0c0 -3.8893738 3.1529465 -7.042328 7.0423203 -7.042328l375.9626 0c1.8677673 0 3.6589966 0.74194336 4.9796753 2.0626526c1.3206787 1.3206787 2.062683 3.111908 2.062683 4.9796753l0 61.033447c0 3.8893738 -3.1529846 7.042328 -7.0423584 7.042328l-375.9626 0c-3.8893738 0 -7.0423203 -3.152954 -7.0423203 -7.042328z" fill-rule="evenodd"/><path fill="#274e13" d="m202.0729 353.33337l-4.1875 0l0 -13.5625l4.375 0q1.96875 0 3.375 0.8125q1.40625 0.8125 2.15625 2.328125q0.75 1.5 0.75 3.609375q0 2.125 -0.765625 3.65625q-0.75 1.515625 -2.203125 2.34375q-1.4375 0.8125 -3.5 0.8125zm-2.546875 -1.453125l2.4375 0q1.6875 0 2.796875 -0.640625q1.109375 -0.65625 1.640625 -1.859375q0.546875 -1.203125 0.546875 -2.859375q0 -1.640625 -0.53125 -2.828125q-0.53125 -1.1875 -1.609375 -1.828125q-1.0625 -0.640625 -2.65625 -0.640625l-2.625 0l0 10.65625zm15.831238 1.671875q-1.46875 0 -2.546875 -0.65625q-1.0625 -0.65625 -1.640625 -1.828125q-0.5625 -1.171875 -0.5625 -2.75q0 -1.5625 0.5625 -2.75q0.578125 -1.203125 1.609375 -1.875q1.03125 -0.671875 2.40625 -0.671875q0.796875 0 1.578125 0.265625q0.78125 0.265625 1.40625 0.859375q0.640625 0.59375 1.015625 1.578125q0.375 0.96875 0.375 2.390625l0 0.65625l-7.84375 0l0 -1.34375l6.265625 0q0 -0.859375 -0.34375 -1.53125q-0.34375 -0.6875 -0.96875 -1.078125q-0.625 -0.390625 -1.484375 -0.390625q-0.921875 0 -1.609375 0.46875q-0.671875 0.453125 -1.046875 1.1875q-0.359375 0.734375 -0.359375 1.578125l0 0.90625q0 1.140625 0.390625 1.953125q0.40625 0.796875 1.125 1.21875q0.71875 0.40625 1.671875 0.40625q0.609375 0 1.109375 -0.171875q0.5 -0.1875 0.859375 -0.53125q0.375 -0.359375 0.5625 -0.890625l1.515625 0.421875q-0.234375 0.765625 -0.796875 1.34375q-0.5625 0.578125 -1.390625 0.90625q-0.828125 0.328125 -1.859375 0.328125zm13.802795 -8.109375l-1.40625 0.390625q-0.125 -0.34375 -0.390625 -0.671875q-0.25 -0.34375 -0.6875 -0.5625q-0.4375 -0.21875 -1.125 -0.21875q-0.9375 0 -1.5625 0.421875q-0.609375 0.421875 -0.609375 1.078125q0 0.59375 0.421875 0.9375q0.421875 0.328125 1.328125 0.546875l1.515625 0.375q1.359375 0.328125 2.03125 1.015625q0.671875 0.671875 0.671875 1.75q0 0.859375 -0.5 1.5625q-0.5 0.6875 -1.40625 1.09375q-0.890625 0.390625 -2.078125 0.390625q-1.546875 0 -2.578125 -0.671875q-1.015625 -0.6875 -1.28125 -1.984375l1.484375 -0.375q0.203125 0.828125 0.796875 1.234375q0.59375 0.40625 1.5625 0.40625q1.09375 0 1.734375 -0.453125q0.640625 -0.46875 0.640625 -1.125q0 -0.53125 -0.375 -0.890625q-0.359375 -0.375 -1.125 -0.546875l-1.703125 -0.390625q-1.390625 -0.34375 -2.046875 -1.03125q-0.65625 -0.703125 -0.65625 -1.765625q0 -0.859375 0.484375 -1.515625q0.484375 -0.65625 1.328125 -1.03125q0.859375 -0.390625 1.921875 -0.390625q1.515625 0 2.375 0.671875q0.875 0.65625 1.234375 1.75zm4.0022583 4.1875l-0.03125 -1.9375l0.328125 0l4.4375 -4.53125l1.9375 0l-4.734375 4.796875l-0.140625 0l-1.796875 1.671875zm-1.453125 3.703125l0 -13.5625l1.5625 0l0 13.5625l-1.5625 0zm6.453125 0l-3.96875 -5.03125l1.109375 -1.09375l4.859375 6.125l-2.0 0zm8.118515 -10.171875l0 1.328125l-5.28125 0l0 -1.328125l5.28125 0zm-3.734375 -2.4375l1.5625 0l0 9.6875q0 0.671875 0.1875 1.0q0.203125 0.328125 0.5 0.4375q0.3125 0.109375 0.65625 0.109375q0.265625 0 0.421875 -0.03125q0.171875 -0.03125 0.265625 -0.046875l0.328125 1.40625q-0.15625 0.046875 -0.453125 0.109375q-0.28125 0.0625 -0.71875 0.0625q-0.65625 0 -1.296875 -0.28125q-0.625 -0.28125 -1.046875 -0.859375q-0.40625 -0.59375 -0.40625 -1.46875l0 -10.125zm10.115616 12.828125q-1.375 0 -2.421875 -0.65625q-1.03125 -0.65625 -1.609375 -1.828125q-0.578125 -1.1875 -0.578125 -2.765625q0 -1.59375 0.578125 -2.78125q0.578125 -1.1875 1.609375 -1.84375q1.046875 -0.65625 2.421875 -0.65625q1.375 0 2.40625 0.65625q1.046875 0.65625 1.625 1.84375q0.578125 1.1875 0.578125 2.78125q0 1.578125 -0.578125 2.765625q-0.578125 1.171875 -1.625 1.828125q-1.03125 0.65625 -2.40625 0.65625zm0 -1.40625q1.046875 0 1.71875 -0.53125q0.6875 -0.546875 1.0 -1.421875q0.328125 -0.875 0.328125 -1.890625q0 -1.03125 -0.328125 -1.90625q-0.3125 -0.875 -1.0 -1.421875q-0.671875 -0.546875 -1.71875 -0.546875q-1.046875 0 -1.71875 0.546875q-0.671875 0.546875 -1.0 1.421875q-0.328125 0.875 -0.328125 1.90625q0 1.015625 0.328125 1.890625q0.328125 0.875 1.0 1.421875q0.671875 0.53125 1.71875 0.53125zm7.0052795 5.0l0 -13.984375l1.5 0l0 1.609375l0.1875 0q0.171875 -0.265625 0.484375 -0.671875q0.3125 -0.421875 0.890625 -0.75q0.578125 -0.328125 1.5625 -0.328125q1.296875 0 2.265625 0.640625q0.984375 0.640625 1.53125 1.828125q0.5625 1.171875 0.5625 2.78125q0 1.625 -0.5625 2.8125q-0.546875 1.171875 -1.515625 1.828125q-0.96875 0.640625 -2.25 0.640625q-0.984375 0 -1.578125 -0.328125q-0.578125 -0.328125 -0.90625 -0.75q-0.3125 -0.421875 -0.484375 -0.703125l-0.125 0l0 5.375l-1.5625 0zm1.53125 -8.90625q0 1.15625 0.328125 2.046875q0.34375 0.875 0.984375 1.375q0.65625 0.484375 1.609375 0.484375q0.96875 0 1.625 -0.515625q0.671875 -0.53125 1.0 -1.40625q0.328125 -0.890625 0.328125 -1.984375q0 -1.0625 -0.328125 -1.921875q-0.3125 -0.875 -0.984375 -1.375q-0.65625 -0.515625 -1.640625 -0.515625q-0.96875 0 -1.625 0.484375q-0.640625 0.484375 -0.96875 1.34375q-0.328125 0.84375 -0.328125 1.984375zm15.287842 5.09375l0 -13.5625l1.640625 0l0 12.109375l6.3125 0l0 1.453125l-7.953125 0zm10.291138 0l0 -10.171875l1.5625 0l0 10.171875l-1.5625 0zm0.78125 -11.875q-0.453125 0 -0.78125 -0.3125q-0.328125 -0.3125 -0.328125 -0.75q0 -0.4375 0.328125 -0.75q0.328125 -0.3125 0.78125 -0.3125q0.46875 0 0.796875 0.3125q0.328125 0.3125 0.328125 0.75q0 0.4375 -0.328125 0.75q-0.328125 0.3125 -0.796875 0.3125zm5.2068787 5.75l0 6.125l-1.5625 0l0 -10.171875l1.5 0l0 1.578125l0.140625 0q0.359375 -0.765625 1.078125 -1.234375q0.734375 -0.484375 1.890625 -0.484375q1.03125 0 1.796875 0.421875q0.78125 0.421875 1.203125 1.28125q0.4375 0.84375 0.4375 2.140625l0 6.46875l-1.5625 0l0 -6.359375q0 -1.203125 -0.625 -1.875q-0.625 -0.671875 -1.703125 -0.671875q-0.75 0 -1.34375 0.328125q-0.578125 0.328125 -0.921875 0.953125q-0.328125 0.609375 -0.328125 1.5zm10.808899 2.421875l-0.03125 -1.9375l0.328125 0l4.4375 -4.53125l1.9375 0l-4.734375 4.796875l-0.140625 0l-1.796875 1.671875zm-1.453125 3.703125l0 -13.5625l1.5625 0l0 13.5625l-1.5625 0zm6.453125 0l-3.96875 -5.03125l1.109375 -1.09375l4.859375 6.125l-2.0 0zm9.146912 0l0 -13.5625l4.59375 0q1.59375 0 2.609375 0.578125q1.015625 0.5625 1.5 1.546875q0.5 0.96875 0.5 2.15625q0 1.203125 -0.5 2.1875q-0.484375 0.984375 -1.5 1.5625q-1.0 0.578125 -2.59375 0.578125l-3.28125 0l0 -1.453125l3.234375 0q1.09375 0 1.75 -0.375q0.671875 -0.390625 0.96875 -1.03125q0.296875 -0.640625 0.296875 -1.46875q0 -0.8125 -0.296875 -1.453125q-0.296875 -0.640625 -0.96875 -1.0q-0.671875 -0.375 -1.78125 -0.375l-2.890625 0l0 12.109375l-1.640625 0zm11.6427 0l0 -10.171875l1.5 0l0 1.53125l0.109375 0q0.28125 -0.75 1.0 -1.21875q0.734375 -0.46875 1.65625 -0.46875q0.171875 0 0.421875 0q0.265625 0 0.390625 0.015625l0 1.59375q-0.078125 -0.015625 -0.359375 -0.0625q-0.28125 -0.046875 -0.59375 -0.046875q-0.734375 0 -1.328125 0.3125q-0.578125 0.3125 -0.90625 0.859375q-0.328125 0.53125 -0.328125 1.21875l0 6.4375l-1.5625 0zm10.75 0.21875q-1.375 0 -2.421875 -0.65625q-1.03125 -0.65625 -1.609375 -1.828125q-0.578125 -1.1875 -0.578125 -2.765625q0 -1.59375 0.578125 -2.78125q0.578125 -1.1875 1.609375 -1.84375q1.046875 -0.65625 2.421875 -0.65625q1.375 0 2.40625 0.65625q1.046875 0.65625 1.625 1.84375q0.578125 1.1875 0.578125 2.78125q0 1.578125 -0.578125 2.765625q-0.578125 1.171875 -1.625 1.828125q-1.03125 0.65625 -2.40625 0.65625zm0 -1.40625q1.046875 0 1.71875 -0.53125q0.6875 -0.546875 1.0 -1.421875q0.328125 -0.875 0.328125 -1.890625q0 -1.03125 -0.328125 -1.90625q-0.3125 -0.875 -1.0 -1.421875q-0.671875 -0.546875 -1.71875 -0.546875q-1.046875 0 -1.71875 0.546875q-0.671875 0.546875 -1.0 1.421875q-0.328125 0.875 -0.328125 1.90625q0 1.015625 0.328125 1.890625q0.328125 0.875 1.0 1.421875q0.671875 0.53125 1.71875 0.53125zm11.427185 -8.984375l0 1.328125l-5.28125 0l0 -1.328125l5.28125 0zm-3.734375 -2.4375l1.5625 0l0 9.6875q0 0.671875 0.1875 1.0q0.203125 0.328125 0.5 0.4375q0.3125 0.109375 0.65625 0.109375q0.265625 0 0.421875 -0.03125q0.171875 -0.03125 0.265625 -0.046875l0.328125 1.40625q-0.15625 0.046875 -0.453125 0.109375q-0.28125 0.0625 -0.71875 0.0625q-0.65625 0 -1.296875 -0.28125q-0.625 -0.28125 -1.046875 -0.859375q-0.40625 -0.59375 -0.40625 -1.46875l0 -10.125zm10.115601 12.828125q-1.375 0 -2.421875 -0.65625q-1.03125 -0.65625 -1.609375 -1.828125q-0.578125 -1.1875 -0.578125 -2.765625q0 -1.59375 0.578125 -2.78125q0.578125 -1.1875 1.609375 -1.84375q1.046875 -0.65625 2.421875 -0.65625q1.375 0 2.40625 0.65625q1.046875 0.65625 1.625 1.84375q0.578125 1.1875 0.578125 2.78125q0 1.578125 -0.578125 2.765625q-0.578125 1.171875 -1.625 1.828125q-1.03125 0.65625 -2.40625 0.65625zm0 -1.40625q1.046875 0 1.71875 -0.53125q0.6875 -0.546875 1.0 -1.421875q0.328125 -0.875 0.328125 -1.890625q0 -1.03125 -0.328125 -1.90625q-0.3125 -0.875 -1.0 -1.421875q-0.671875 -0.546875 -1.71875 -0.546875q-1.046875 0 -1.71875 0.546875q-0.671875 0.546875 -1.0 1.421875q-0.328125 0.875 -0.328125 1.90625q0 1.015625 0.328125 1.890625q0.328125 0.875 1.0 1.421875q0.671875 0.53125 1.71875 0.53125zm11.13031 1.40625q-1.421875 0 -2.46875 -0.671875q-1.03125 -0.6875 -1.59375 -1.875q-0.546875 -1.1875 -0.546875 -2.703125q0 -1.546875 0.5625 -2.734375q0.578125 -1.203125 1.609375 -1.875q1.03125 -0.671875 2.40625 -0.671875q1.078125 0 1.9375 0.40625q0.859375 0.390625 1.40625 1.109375q0.5625 0.71875 0.6875 1.671875l-1.5625 0q-0.171875 -0.703125 -0.796875 -1.234375q-0.609375 -0.546875 -1.640625 -0.546875q-0.90625 0 -1.59375 0.484375q-0.6875 0.46875 -1.078125 1.328125q-0.375 0.859375 -0.375 2.0q0 1.1875 0.375 2.0625q0.375 0.875 1.0625 1.359375q0.6875 0.484375 1.609375 0.484375q0.609375 0 1.109375 -0.203125q0.5 -0.21875 0.84375 -0.609375q0.34375 -0.40625 0.484375 -0.96875l1.5625 0q-0.125 0.90625 -0.65625 1.625q-0.515625 0.71875 -1.375 1.140625q-0.84375 0.421875 -1.96875 0.421875zm10.414764 0q-1.375 0 -2.421875 -0.65625q-1.03125 -0.65625 -1.609375 -1.828125q-0.578125 -1.1875 -0.578125 -2.765625q0 -1.59375 0.578125 -2.78125q0.578125 -1.1875 1.609375 -1.84375q1.046875 -0.65625 2.421875 -0.65625q1.375 0 2.40625 0.65625q1.046875 0.65625 1.625 1.84375q0.578125 1.1875 0.578125 2.78125q0 1.578125 -0.578125 2.765625q-0.578125 1.171875 -1.625 1.828125q-1.03125 0.65625 -2.40625 0.65625zm0 -1.40625q1.046875 0 1.71875 -0.53125q0.6875 -0.546875 1.0 -1.421875q0.328125 -0.875 0.328125 -1.890625q0 -1.03125 -0.328125 -1.90625q-0.3125 -0.875 -1.0 -1.421875q-0.671875 -0.546875 -1.71875 -0.546875q-1.046875 0 -1.71875 0.546875q-0.671875 0.546875 -1.0 1.421875q-0.328125 0.875 -0.328125 1.90625q0 1.015625 0.328125 1.890625q0.328125 0.875 1.0 1.421875q0.671875 0.53125 1.71875 0.53125zm8.56778 -12.375l0 13.5625l-1.5625 0l0 -13.5625l1.5625 0zm8.657166 6.78125q0 -2.515625 0.65625 -4.609375q0.65625 -2.109375 1.859375 -3.875l1.390625 0q-0.484375 0.65625 -0.90625 1.609375q-0.40625 0.953125 -0.71875 2.109375q-0.3125 1.140625 -0.484375 2.359375q-0.171875 1.21875 -0.171875 2.40625q0 1.578125 0.296875 3.203125q0.3125 1.609375 0.828125 3.0q0.515625 1.390625 1.15625 2.265625l-1.390625 0q-1.203125 -1.765625 -1.859375 -3.859375q-0.65625 -2.109375 -0.65625 -4.609375zm10.60141 6.78125l-4.1875 0l0 -13.5625l4.375 0q1.96875 0 3.375 0.8125q1.40625 0.8125 2.15625 2.328125q0.75 1.5 0.75 3.609375q0 2.125 -0.765625 3.65625q-0.75 1.515625 -2.203125 2.34375q-1.4375 0.8125 -3.5 0.8125zm-2.546875 -1.453125l2.4375 0q1.6875 0 2.796875 -0.640625q1.109375 -0.65625 1.640625 -1.859375q0.546875 -1.203125 0.546875 -2.859375q0 -1.640625 -0.53125 -2.828125q-0.53125 -1.1875 -1.609375 -1.828125q-1.0625 -0.640625 -2.65625 -0.640625l-2.625 0l0 10.65625zm11.768738 1.453125l0 -13.5625l1.640625 0l0 12.109375l6.3125 0l0 1.453125l-7.953125 0zm10.494293 0l0 -13.5625l4.59375 0q1.59375 0 2.609375 0.578125q1.015625 0.5625 1.5 1.546875q0.5 0.96875 0.5 2.15625q0 1.203125 -0.5 2.1875q-0.484375 0.984375 -1.5 1.5625q-1.0 0.578125 -2.59375 0.578125l-3.28125 0l0 -1.453125l3.234375 0q1.09375 0 1.75 -0.375q0.671875 -0.390625 0.96875 -1.03125q0.296875 -0.640625 0.296875 -1.46875q0 -0.8125 -0.296875 -1.453125q-0.296875 -0.640625 -0.96875 -1.0q-0.671875 -0.375 -1.78125 -0.375l-2.890625 0l0 12.109375l-1.640625 0zm14.970795 -6.78125q0 2.5 -0.65625 4.609375q-0.640625 2.09375 -1.859375 3.859375l-1.375 0q0.46875 -0.65625 0.875 -1.609375q0.421875 -0.953125 0.734375 -2.09375q0.3125 -1.140625 0.484375 -2.359375q0.1875 -1.234375 0.1875 -2.40625q0 -1.578125 -0.3125 -3.203125q-0.296875 -1.625 -0.8125 -3.015625q-0.515625 -1.390625 -1.15625 -2.265625l1.375 0q1.21875 1.765625 1.859375 3.875q0.65625 2.09375 0.65625 4.609375z" fill-rule="nonzero"/><path fill="#d9ead3" d="m125.085304 192.05939l0 0c0 -3.8893738 3.1529465 -7.042328 7.0423203 -7.042328l181.28543 0c1.8677368 0 3.6589966 0.7419586 4.9796753 2.0626526c1.3206787 1.320694 2.0626526 3.1119385 2.0626526 4.9796753l0 61.033463c0 3.8893585 -3.152954 7.0423126 -7.042328 7.0423126l-181.28543 0c-3.8893738 0 -7.0423203 -3.152954 -7.0423203 -7.0423126z" fill-rule="evenodd"/><path stroke="#274e13" stroke-width="1.0" stroke-linejoin="round" stroke-linecap="butt" d="m125.085304 192.05939l0 0c0 -3.8893738 3.1529465 -7.042328 7.0423203 -7.042328l181.28543 0c1.8677368 0 3.6589966 0.7419586 4.9796753 2.0626526c1.3206787 1.320694 2.0626526 3.1119385 2.0626526 4.9796753l0 61.033463c0 3.8893585 -3.152954 7.0423126 -7.042328 7.0423126l-181.28543 0c-3.8893738 0 -7.0423203 -3.152954 -7.0423203 -7.0423126z" fill-rule="evenodd"/><path fill="#274e13" d="m159.79716 217.38673l0 -1.453125l10.171875 0l0 1.453125l-4.265625 0l0 12.109375l-1.640625 0l0 -12.109375l-4.265625 0zm13.6397705 12.109375l-3.09375 -10.171875l1.640625 0l2.203125 7.78125l0.09375 0l2.171875 -7.78125l1.671875 0l2.15625 7.765625l0.109375 0l2.1875 -7.765625l1.640625 0l-3.09375 10.171875l-1.53125 0l-2.234375 -7.8125l-0.15625 0l-2.21875 7.8125l-1.546875 0zm16.64183 0.21875q-1.375 0 -2.421875 -0.65625q-1.03125 -0.65625 -1.609375 -1.828125q-0.578125 -1.1875 -0.578125 -2.765625q0 -1.59375 0.578125 -2.78125q0.578125 -1.1875 1.609375 -1.84375q1.046875 -0.65625 2.421875 -0.65625q1.375 0 2.40625 0.65625q1.046875 0.65625 1.625 1.84375q0.578125 1.1875 0.578125 2.78125q0 1.578125 -0.578125 2.765625q-0.578125 1.171875 -1.625 1.828125q-1.03125 0.65625 -2.40625 0.65625zm0 -1.40625q1.046875 0 1.71875 -0.53125q0.6875 -0.546875 1.0 -1.421875q0.328125 -0.875 0.328125 -1.890625q0 -1.03125 -0.328125 -1.90625q-0.3125 -0.875 -1.0 -1.421875q-0.671875 -0.546875 -1.71875 -0.546875q-1.046875 0 -1.71875 0.546875q-0.671875 0.546875 -1.0 1.421875q-0.328125 0.875 -0.328125 1.90625q0 1.015625 0.328125 1.890625q0.328125 0.875 1.0 1.421875q0.671875 0.53125 1.71875 0.53125zm12.83342 -5.359375l0 1.453125l-5.9375 0l0 -1.453125l5.9375 0zm5.0549774 6.546875l-3.09375 -10.171875l1.640625 0l2.203125 7.78125l0.09375 0l2.171875 -7.78125l1.671875 0l2.15625 7.765625l0.109375 0l2.1875 -7.765625l1.640625 0l-3.09375 10.171875l-1.53125 0l-2.234375 -7.8125l-0.15625 0l-2.21875 7.8125l-1.546875 0zm15.8459015 0.234375q-0.96875 0 -1.765625 -0.359375q-0.78125 -0.375 -1.25 -1.0625q-0.453125 -0.703125 -0.453125 -1.703125q0 -0.875 0.34375 -1.421875q0.34375 -0.546875 0.921875 -0.859375q0.578125 -0.3125 1.265625 -0.46875q0.703125 -0.15625 1.421875 -0.25q0.921875 -0.109375 1.5 -0.171875q0.578125 -0.0625 0.84375 -0.21875q0.28125 -0.15625 0.28125 -0.53125l0 -0.046875q0 -0.984375 -0.546875 -1.53125q-0.53125 -0.546875 -1.609375 -0.546875q-1.109375 0 -1.75 0.5q-0.640625 0.484375 -0.890625 1.046875l-1.484375 -0.53125q0.390625 -0.921875 1.046875 -1.4375q0.671875 -0.53125 1.46875 -0.734375q0.796875 -0.21875 1.5625 -0.21875q0.484375 0 1.125 0.125q0.640625 0.109375 1.234375 0.46875q0.609375 0.359375 1.0 1.078125q0.40625 0.71875 0.40625 1.9375l0 6.703125l-1.5625 0l0 -1.375l-0.078125 0q-0.171875 0.328125 -0.546875 0.703125q-0.359375 0.375 -0.984375 0.640625q-0.609375 0.265625 -1.5 0.265625zm0.25 -1.40625q0.921875 0 1.5625 -0.359375q0.640625 -0.359375 0.96875 -0.9375q0.328125 -0.578125 0.328125 -1.21875l0 -1.421875q-0.109375 0.109375 -0.453125 0.21875q-0.328125 0.09375 -0.765625 0.15625q-0.421875 0.0625 -0.828125 0.125q-0.40625 0.046875 -0.65625 0.078125q-0.609375 0.078125 -1.140625 0.265625q-0.53125 0.171875 -0.859375 0.515625q-0.3125 0.34375 -0.3125 0.9375q0 0.8125 0.609375 1.234375q0.609375 0.40625 1.546875 0.40625zm7.9151917 4.984375q-0.390625 0 -0.703125 -0.0625q-0.3125 -0.0625 -0.4375 -0.125l0.40625 -1.375q0.5625 0.140625 1.0 0.09375q0.4375 -0.03125 0.78125 -0.375q0.34375 -0.34375 0.625 -1.125l0.296875 -0.796875l-3.765625 -10.21875l1.6875 0l2.8125 8.109375l0.109375 0l2.8125 -8.109375l1.6875 0l-4.3125 11.65625q-0.296875 0.78125 -0.734375 1.296875q-0.421875 0.53125 -1.0 0.78125q-0.5625 0.25 -1.265625 0.25zm21.838547 -11.703125l-1.40625 0.390625q-0.125 -0.34375 -0.390625 -0.671875q-0.25 -0.34375 -0.6875 -0.5625q-0.4375 -0.21875 -1.125 -0.21875q-0.9375 0 -1.5625 0.421875q-0.609375 0.421875 -0.609375 1.078125q0 0.59375 0.421875 0.9375q0.421875 0.328125 1.328125 0.546875l1.515625 0.375q1.359375 0.328125 2.03125 1.015625q0.671875 0.671875 0.671875 1.75q0 0.859375 -0.5 1.5625q-0.5 0.6875 -1.40625 1.09375q-0.890625 0.390625 -2.078125 0.390625q-1.546875 0 -2.578125 -0.671875q-1.015625 -0.6875 -1.28125 -1.984375l1.484375 -0.375q0.203125 0.828125 0.796875 1.234375q0.59375 0.40625 1.5625 0.40625q1.09375 0 1.734375 -0.453125q0.640625 -0.46875 0.640625 -1.125q0 -0.53125 -0.375 -0.890625q-0.359375 -0.375 -1.125 -0.546875l-1.703125 -0.390625q-1.390625 -0.34375 -2.046875 -1.03125q-0.65625 -0.703125 -0.65625 -1.765625q0 -0.859375 0.484375 -1.515625q0.484375 -0.65625 1.328125 -1.03125q0.859375 -0.390625 1.921875 -0.390625q1.515625 0 2.375 0.671875q0.875 0.65625 1.234375 1.75zm3.5491333 11.703125q-0.390625 0 -0.703125 -0.0625q-0.3125 -0.0625 -0.4375 -0.125l0.40625 -1.375q0.5625 0.140625 1.0 0.09375q0.4375 -0.03125 0.78125 -0.375q0.34375 -0.34375 0.625 -1.125l0.296875 -0.796875l-3.765625 -10.21875l1.6875 0l2.8125 8.109375l0.109375 0l2.8125 -8.109375l1.6875 0l-4.3125 11.65625q-0.296875 0.78125 -0.734375 1.296875q-0.421875 0.53125 -1.0 0.78125q-0.5625 0.25 -1.265625 0.25zm10.950775 -9.9375l0 6.125l-1.5625 0l0 -10.171875l1.5 0l0 1.578125l0.140625 0q0.359375 -0.765625 1.078125 -1.234375q0.734375 -0.484375 1.890625 -0.484375q1.03125 0 1.796875 0.421875q0.78125 0.421875 1.203125 1.28125q0.4375 0.84375 0.4375 2.140625l0 6.46875l-1.5625 0l0 -6.359375q0 -1.203125 -0.625 -1.875q-0.625 -0.671875 -1.703125 -0.671875q-0.75 0 -1.34375 0.328125q-0.578125 0.328125 -0.921875 0.953125q-0.328125 0.609375 -0.328125 1.5zm13.480774 6.34375q-1.421875 0 -2.46875 -0.671875q-1.03125 -0.6875 -1.59375 -1.875q-0.546875 -1.1875 -0.546875 -2.703125q0 -1.546875 0.5625 -2.734375q0.578125 -1.203125 1.609375 -1.875q1.03125 -0.671875 2.40625 -0.671875q1.078125 0 1.9375 0.40625q0.859375 0.390625 1.40625 1.109375q0.5625 0.71875 0.6875 1.671875l-1.5625 0q-0.171875 -0.703125 -0.796875 -1.234375q-0.609375 -0.546875 -1.640625 -0.546875q-0.90625 0 -1.59375 0.484375q-0.6875 0.46875 -1.078125 1.328125q-0.375 0.859375 -0.375 2.0q0 1.1875 0.375 2.0625q0.375 0.875 1.0625 1.359375q0.6875 0.484375 1.609375 0.484375q0.609375 0 1.109375 -0.203125q0.5 -0.21875 0.84375 -0.609375q0.34375 -0.40625 0.484375 -0.96875l1.5625 0q-0.125 0.90625 -0.65625 1.625q-0.515625 0.71875 -1.375 1.140625q-0.84375 0.421875 -1.96875 0.421875z" fill-rule="nonzero"/><path fill="#c9daf8" d="m125.085304 44.222115l0 0c0 -3.88937 3.1529465 -7.042324 7.0423203 -7.042324l375.9626 0c1.8677673 0 3.6589966 0.7419548 4.9796753 2.0626488c1.3206787 1.3206902 2.062683 3.1119347 2.062683 4.9796753l0 61.033463c0 3.8893661 -3.1529846 7.0423203 -7.0423584 7.0423203l-375.9626 0c-3.8893738 0 -7.0423203 -3.152954 -7.0423203 -7.0423203z" fill-rule="evenodd"/><path stroke="#1c4587" stroke-width="1.0" stroke-linejoin="round" stroke-linecap="butt" d="m125.085304 44.222115l0 0c0 -3.88937 3.1529465 -7.042324 7.0423203 -7.042324l375.9626 0c1.8677673 0 3.6589966 0.7419548 4.9796753 2.0626488c1.3206787 1.3206902 2.062683 3.1119347 2.062683 4.9796753l0 61.033463c0 3.8893661 -3.1529846 7.0423203 -7.0423584 7.0423203l-375.9626 0c-3.8893738 0 -7.0423203 -3.152954 -7.0423203 -7.0423203z" fill-rule="evenodd"/><path fill="#1c4587" d="m296.83664 72.846344l-2.90625 0q-0.078125 -0.5625 -0.328125 -1.0q-0.25 -0.453125 -0.640625 -0.765625q-0.375 -0.3125 -0.875 -0.46875q-0.5 -0.171875 -1.078125 -0.171875q-1.046875 0 -1.84375 0.53125q-0.78125 0.515625 -1.21875 1.5q-0.421875 0.984375 -0.421875 2.40625q0 1.453125 0.4375 2.4375q0.4375 0.984375 1.21875 1.484375q0.78125 0.5 1.8125 0.5q0.578125 0 1.0625 -0.140625q0.5 -0.15625 0.875 -0.453125q0.390625 -0.296875 0.640625 -0.71875q0.265625 -0.421875 0.359375 -0.96875l2.90625 0.015625q-0.125 0.9375 -0.578125 1.796875q-0.4375 0.859375 -1.1875 1.546875q-0.75 0.671875 -1.796875 1.078125q-1.03125 0.390625 -2.328125 0.390625q-1.8125 0 -3.25 -0.8125q-1.421875 -0.828125 -2.25 -2.390625q-0.828125 -1.5625 -0.828125 -3.765625q0 -2.21875 0.828125 -3.78125q0.84375 -1.5625 2.265625 -2.375q1.4375 -0.8125 3.234375 -0.8125q1.171875 0 2.1875 0.328125q1.015625 0.328125 1.796875 0.96875q0.78125 0.625 1.265625 1.546875q0.5 0.90625 0.640625 2.09375zm6.594635 9.015625q-1.53125 0 -2.65625 -0.65625q-1.125 -0.671875 -1.734375 -1.84375q-0.609375 -1.1875 -0.609375 -2.75q0 -1.578125 0.609375 -2.75q0.609375 -1.1875 1.734375 -1.84375q1.125 -0.671875 2.65625 -0.671875q1.546875 0 2.671875 0.671875q1.125 0.65625 1.734375 1.84375q0.609375 1.171875 0.609375 2.75q0 1.5625 -0.609375 2.75q-0.609375 1.171875 -1.734375 1.84375q-1.125 0.65625 -2.671875 0.65625zm0.015625 -2.1875q0.703125 0 1.171875 -0.40625q0.46875 -0.40625 0.703125 -1.09375q0.25 -0.703125 0.25 -1.578125q0 -0.890625 -0.25 -1.578125q-0.234375 -0.703125 -0.703125 -1.109375q-0.46875 -0.40625 -1.171875 -0.40625q-0.703125 0 -1.1875 0.40625q-0.484375 0.40625 -0.734375 1.109375q-0.234375 0.6875 -0.234375 1.578125q0 0.875 0.234375 1.578125q0.25 0.6875 0.734375 1.09375q0.484375 0.40625 1.1875 0.40625zm9.667053 -3.90625l0 5.890625l-2.828125 0l0 -10.171875l2.6875 0l0 1.796875l0.125 0q0.328125 -0.890625 1.125 -1.40625q0.796875 -0.53125 1.9375 -0.53125q1.0625 0 1.84375 0.46875q0.796875 0.46875 1.21875 1.328125q0.4375 0.84375 0.4375 2.03125l0 6.484375l-2.8125 0l0 -5.96875q0 -0.9375 -0.484375 -1.46875q-0.484375 -0.53125 -1.328125 -0.53125q-0.5625 0 -1.0 0.25q-0.4375 0.25 -0.6875 0.71875q-0.234375 0.46875 -0.234375 1.109375zm12.5225525 6.0625q-1.15625 0 -2.09375 -0.59375q-0.9375 -0.609375 -1.484375 -1.78125q-0.546875 -1.171875 -0.546875 -2.875q0 -1.75 0.5625 -2.90625q0.5625 -1.171875 1.5 -1.75q0.9375 -0.578125 2.0625 -0.578125q0.84375 0 1.421875 0.296875q0.578125 0.28125 0.921875 0.71875q0.359375 0.421875 0.546875 0.828125l0.078125 0l0 -5.09375l2.828125 0l0 13.5625l-2.78125 0l0 -1.625l-0.125 0q-0.203125 0.421875 -0.5625 0.84375q-0.359375 0.40625 -0.9375 0.6875q-0.5625 0.265625 -1.390625 0.265625zm0.890625 -2.25q0.6875 0 1.15625 -0.375q0.484375 -0.375 0.734375 -1.046875q0.25 -0.6875 0.25 -1.59375q0 -0.90625 -0.25 -1.5625q-0.25 -0.671875 -0.734375 -1.03125q-0.46875 -0.375 -1.15625 -0.375q-0.6875 0 -1.171875 0.375q-0.46875 0.375 -0.71875 1.046875q-0.25 0.671875 -0.25 1.546875q0 0.890625 0.25 1.578125q0.25 0.671875 0.71875 1.0625q0.484375 0.375 1.171875 0.375zm13.743042 -2.25l0 -5.84375l2.8125 0l0 10.171875l-2.703125 0l0 -1.84375l-0.109375 0q-0.34375 0.890625 -1.140625 1.4375q-0.796875 0.53125 -1.9375 0.53125q-1.03125 0 -1.8125 -0.453125q-0.765625 -0.46875 -1.203125 -1.3125q-0.421875 -0.859375 -0.4375 -2.0625l0 -6.46875l2.828125 0l0 5.96875q0 0.90625 0.46875 1.4375q0.484375 0.515625 1.28125 0.515625q0.515625 0 0.953125 -0.234375q0.453125 -0.234375 0.71875 -0.703125q0.28125 -0.46875 0.28125 -1.140625zm5.0694275 4.328125l0 -10.171875l2.828125 0l0 10.171875l-2.828125 0zm1.421875 -11.484375q-0.625 0 -1.078125 -0.421875q-0.453125 -0.421875 -0.453125 -1.015625q0 -0.578125 0.453125 -1.0q0.453125 -0.421875 1.078125 -0.421875q0.625 0 1.0625 0.421875q0.453125 0.421875 0.453125 1.0q0 0.59375 -0.453125 1.015625q-0.4375 0.421875 -1.0625 0.421875zm9.059265 1.3125l0 2.109375l-6.125 0l0 -2.109375l6.125 0zm-4.734375 -2.4375l2.828125 0l0 9.484375q0 0.390625 0.109375 0.609375q0.125 0.203125 0.34375 0.296875q0.21875 0.078125 0.5 0.078125q0.203125 0 0.390625 -0.03125q0.203125 -0.03125 0.3125 -0.046875l0.4375 2.09375q-0.203125 0.0625 -0.59375 0.15625q-0.375 0.09375 -0.9375 0.109375q-1.015625 0.03125 -1.78125 -0.265625q-0.765625 -0.3125 -1.1875 -0.96875q-0.421875 -0.65625 -0.421875 -1.65625l0 -9.859375z" fill-rule="nonzero"/><path fill="#000000" fill-opacity="0.0" d="m320.10892 507.8084l0 48.724426" fill-rule="evenodd"/><path stroke="#434343" stroke-width="2.0" stroke-linejoin="round" stroke-linecap="butt" d="m320.10892 519.8084l0 24.724426" fill-rule="evenodd"/><path fill="#434343" stroke="#434343" stroke-width="2.0" stroke-linecap="butt" d="m323.41238 519.8084l-3.3034668 -9.076202l-3.3034668 9.076202z" fill-rule="evenodd"/><path fill="#434343" stroke="#434343" stroke-width="2.0" stroke-linecap="butt" d="m316.80545 544.53284l3.3034668 9.076172l3.3034668 -9.076172z" fill-rule="evenodd"/><path fill="#000000" fill-opacity="0.0" d="m320.10892 383.97244l0 48.724396" fill-rule="evenodd"/><path stroke="#434343" stroke-width="2.0" stroke-linejoin="round" stroke-linecap="butt" d="m320.10892 395.97244l0 24.724396" fill-rule="evenodd"/><path fill="#434343" stroke="#434343" stroke-width="2.0" stroke-linecap="butt" d="m323.41238 395.97244l-3.3034668 -9.076202l-3.3034668 9.076202z" fill-rule="evenodd"/><path fill="#434343" stroke="#434343" stroke-width="2.0" stroke-linecap="butt" d="m316.80545 420.69684l3.3034668 9.076202l3.3034668 -9.076202z" fill-rule="evenodd"/><path fill="#000000" fill-opacity="0.0" d="m222.7658 260.13254l0 48.724426" fill-rule="evenodd"/><path stroke="#434343" stroke-width="2.0" stroke-linejoin="round" stroke-linecap="butt" d="m222.7658 272.13254l0 24.724426" fill-rule="evenodd"/><path fill="#434343" stroke="#434343" stroke-width="2.0" stroke-linecap="butt" d="m226.06926 272.13254l-3.3034668 -9.076202l-3.3034668 9.076202z" fill-rule="evenodd"/><path fill="#434343" stroke="#434343" stroke-width="2.0" stroke-linecap="butt" d="m219.46233 296.85696l3.3034668 9.076172l3.3034668 -9.076172z" fill-rule="evenodd"/><path fill="#000000" fill-opacity="0.0" d="m421.65485 113.88845l0 194.99213" fill-rule="evenodd"/><path stroke="#434343" stroke-width="2.0" stroke-linejoin="round" stroke-linecap="butt" d="m421.65485 125.88845l0 170.99213" fill-rule="evenodd"/><path fill="#434343" stroke="#434343" stroke-width="2.0" stroke-linecap="butt" d="m424.9583 125.88845l-3.3034668 -9.076195l-3.3034668 9.076195z" fill-rule="evenodd"/><path fill="#434343" stroke="#434343" stroke-width="2.0" stroke-linecap="butt" d="m418.35138 296.88058l3.3034668 9.076202l3.3034668 -9.076202z" fill-rule="evenodd"/><path fill="#000000" fill-opacity="0.0" d="m222.77034 111.44226l0 73.5748" fill-rule="evenodd"/><path stroke="#434343" stroke-width="2.0" stroke-linejoin="round" stroke-linecap="butt" d="m222.77034 123.44226l0 49.5748" fill-rule="evenodd"/><path fill="#434343" stroke="#434343" stroke-width="2.0" stroke-linecap="butt" d="m226.0738 123.44225l-3.3034668 -9.076195l-3.3034668 9.076195z" fill-rule="evenodd"/><path fill="#434343" stroke="#434343" stroke-width="2.0" stroke-linecap="butt" d="m219.46687 173.01706l3.3034668 9.076202l3.3034668 -9.076202z" fill-rule="evenodd"/><path fill="#c9daf8" d="m125.09055 711.4137l0 0c0 -3.8893433 3.1529465 -7.0422974 7.0423203 -7.0422974l375.9626 0c1.8677673 0 3.6589966 0.74194336 4.9796753 2.062622c1.3206787 1.3207397 2.062683 3.1119385 2.062683 4.9796753l0 61.03351c0 3.8893433 -3.1529846 7.0422974 -7.0423584 7.0422974l-375.9626 0c-3.8893738 0 -7.0423203 -3.152954 -7.0423203 -7.0422974z" fill-rule="evenodd"/><path stroke="#1c4587" stroke-width="1.0" stroke-linejoin="round" stroke-linecap="butt" d="m125.09055 711.4137l0 0c0 -3.8893433 3.1529465 -7.0422974 7.0423203 -7.0422974l375.9626 0c1.8677673 0 3.6589966 0.74194336 4.9796753 2.062622c1.3206787 1.3207397 2.062683 3.1119385 2.062683 4.9796753l0 61.03351c0 3.8893433 -3.1529846 7.0422974 -7.0423584 7.0422974l-375.9626 0c-3.8893738 0 -7.0423203 -3.152954 -7.0423203 -7.0422974z" fill-rule="evenodd"/><path fill="#1c4587" d="m276.91333 748.85046l-4.8125 0l0 -13.5625l4.859375 0q2.046875 0 3.515625 0.8125q1.484375 0.8125 2.28125 2.328125q0.796875 1.515625 0.796875 3.625q0 2.125 -0.796875 3.65625q-0.796875 1.515625 -2.28125 2.328125q-1.484375 0.8125 -3.5625 0.8125zm-1.9375 -2.453125l1.828125 0q1.265625 0 2.140625 -0.453125q0.875 -0.453125 1.3125 -1.40625q0.4375 -0.96875 0.4375 -2.484375q0 -1.5 -0.4375 -2.453125q-0.4375 -0.953125 -1.3125 -1.40625q-0.859375 -0.453125 -2.140625 -0.453125l-1.828125 0l0 8.65625zm10.646484 2.453125l0 -10.171875l2.734375 0l0 1.765625l0.109375 0q0.28125 -0.9375 0.9375 -1.421875q0.65625 -0.5 1.5 -0.5q0.21875 0 0.453125 0.03125q0.25 0.03125 0.4375 0.078125l0 2.5q-0.1875 -0.0625 -0.546875 -0.109375q-0.34375 -0.046875 -0.640625 -0.046875q-0.625 0 -1.109375 0.28125q-0.484375 0.265625 -0.765625 0.75q-0.28125 0.46875 -0.28125 1.09375l0 5.75l-2.828125 0zm7.62558 0l0 -10.171875l2.828125 0l0 10.171875l-2.828125 0zm1.421875 -11.484375q-0.625 0 -1.078125 -0.421875q-0.453125 -0.421875 -0.453125 -1.015625q0 -0.578125 0.453125 -1.0q0.453125 -0.421875 1.078125 -0.421875q0.625 0 1.0625 0.421875q0.453125 0.421875 0.453125 1.0q0 0.59375 -0.453125 1.015625q-0.4375 0.421875 -1.0625 0.421875zm13.13739 1.3125l-3.546875 10.171875l-3.1875 0l-3.5625 -10.171875l2.984375 0l2.109375 7.28125l0.109375 0l2.109375 -7.28125l2.984375 0zm5.7497253 10.375q-1.578125 0 -2.703125 -0.640625q-1.125 -0.640625 -1.734375 -1.8125q-0.609375 -1.1875 -0.609375 -2.796875q0 -1.5625 0.609375 -2.75q0.609375 -1.1875 1.71875 -1.84375q1.109375 -0.671875 2.609375 -0.671875q1.0 0 1.875 0.328125q0.875 0.3125 1.515625 0.96875q0.65625 0.640625 1.015625 1.609375q0.375 0.96875 0.375 2.265625l0 0.78125l-8.59375 0l0 -1.75l5.9375 0q0 -0.609375 -0.265625 -1.078125q-0.265625 -0.484375 -0.734375 -0.75q-0.46875 -0.265625 -1.078125 -0.265625q-0.640625 0 -1.140625 0.296875q-0.5 0.296875 -0.78125 0.796875q-0.265625 0.484375 -0.28125 1.09375l0 1.65625q0 0.75 0.28125 1.3125q0.28125 0.546875 0.796875 0.84375q0.515625 0.296875 1.234375 0.296875q0.46875 0 0.859375 -0.125q0.390625 -0.140625 0.671875 -0.40625q0.28125 -0.265625 0.421875 -0.65625l2.609375 0.171875q-0.203125 0.953125 -0.8125 1.65625q-0.609375 0.6875 -1.578125 1.078125q-0.96875 0.390625 -2.21875 0.390625zm6.509552 -0.203125l0 -10.171875l2.734375 0l0 1.765625l0.109375 0q0.28125 -0.9375 0.9375 -1.421875q0.65625 -0.5 1.5 -0.5q0.21875 0 0.453125 0.03125q0.25 0.03125 0.4375 0.078125l0 2.5q-0.1875 -0.0625 -0.546875 -0.109375q-0.34375 -0.046875 -0.640625 -0.046875q-0.625 0 -1.109375 0.28125q-0.484375 0.265625 -0.765625 0.75q-0.28125 0.46875 -0.28125 1.09375l0 5.75l-2.828125 0zm17.858063 -14.203125l-4.375 16.25l-2.421875 0l4.375 -16.25l2.421875 0zm18.210052 7.421875q0 2.21875 -0.84375 3.78125q-0.828125 1.546875 -2.265625 2.375q-1.4375 0.8125 -3.234375 0.8125q-1.8125 0 -3.25 -0.8125q-1.4375 -0.828125 -2.28125 -2.390625q-0.828125 -1.5625 -0.828125 -3.765625q0 -2.21875 0.828125 -3.78125q0.84375 -1.5625 2.28125 -2.375q1.4375 -0.8125 3.25 -0.8125q1.796875 0 3.234375 0.8125q1.4375 0.8125 2.265625 2.375q0.84375 1.5625 0.84375 3.78125zm-2.90625 0q0 -1.4375 -0.421875 -2.421875q-0.421875 -1.0 -1.203125 -1.5q-0.78125 -0.515625 -1.8125 -0.515625q-1.046875 0 -1.828125 0.515625q-0.765625 0.5 -1.203125 1.5q-0.421875 0.984375 -0.421875 2.421875q0 1.4375 0.421875 2.421875q0.4375 0.984375 1.203125 1.5q0.78125 0.5 1.828125 0.5q1.03125 0 1.8125 -0.5q0.78125 -0.515625 1.203125 -1.5q0.421875 -0.984375 0.421875 -2.421875zm12.401123 -2.890625q-0.09375 -0.796875 -0.703125 -1.234375q-0.59375 -0.453125 -1.625 -0.453125q-0.703125 0 -1.1875 0.203125q-0.484375 0.1875 -0.734375 0.53125q-0.25 0.34375 -0.25 0.78125q-0.015625 0.375 0.140625 0.640625q0.171875 0.265625 0.46875 0.46875q0.3125 0.1875 0.703125 0.34375q0.390625 0.140625 0.828125 0.234375l1.21875 0.296875q0.890625 0.1875 1.625 0.53125q0.75 0.328125 1.28125 0.8125q0.546875 0.484375 0.84375 1.140625q0.3125 0.65625 0.3125 1.5q0 1.25 -0.625 2.15625q-0.625 0.90625 -1.8125 1.40625q-1.171875 0.5 -2.828125 0.5q-1.640625 0 -2.859375 -0.5q-1.203125 -0.5 -1.890625 -1.484375q-0.671875 -1.0 -0.71875 -2.46875l2.78125 0q0.046875 0.6875 0.390625 1.140625q0.359375 0.453125 0.9375 0.6875q0.59375 0.21875 1.328125 0.21875q0.734375 0 1.265625 -0.203125q0.546875 -0.21875 0.84375 -0.59375q0.296875 -0.375 0.296875 -0.859375q0 -0.46875 -0.265625 -0.78125q-0.265625 -0.3125 -0.78125 -0.53125q-0.515625 -0.21875 -1.25 -0.390625l-1.484375 -0.375q-1.71875 -0.40625 -2.71875 -1.296875q-0.984375 -0.890625 -0.984375 -2.390625q0 -1.234375 0.65625 -2.15625q0.671875 -0.921875 1.828125 -1.4375q1.171875 -0.515625 2.65625 -0.515625q1.515625 0 2.640625 0.515625q1.140625 0.515625 1.765625 1.4375q0.625 0.921875 0.65625 2.125l-2.75 0z" fill-rule="nonzero"/><path fill="#000000" fill-opacity="0.0" d="m320.10892 631.64435l0 72.72443" fill-rule="evenodd"/><path stroke="#434343" stroke-width="2.0" stroke-linejoin="round" stroke-linecap="butt" d="m320.10892 643.64435l0 48.724426" fill-rule="evenodd"/><path fill="#434343" stroke="#434343" stroke-width="2.0" stroke-linecap="butt" d="m323.41238 643.64435l-3.3034668 -9.076172l-3.3034668 9.076172z" fill-rule="evenodd"/><path fill="#434343" stroke="#434343" stroke-width="2.0" stroke-linecap="butt" d="m316.80545 692.3688l3.3034668 9.076172l3.3034668 -9.076172z" fill-rule="evenodd"/><path fill="#c9daf8" d="m125.09055 835.24835l0 0c0 -3.8893433 3.1529465 -7.0422974 7.0423203 -7.0422974l375.9626 0c1.8677673 0 3.6589966 0.74194336 4.9796753 2.062622c1.3206787 1.3206787 2.062683 3.1119385 2.062683 4.9796753l0 61.033447c0 3.8894043 -3.1529846 7.0423584 -7.0423584 7.0423584l-375.9626 0c-3.8893738 0 -7.0423203 -3.152954 -7.0423203 -7.0423584z" fill-rule="evenodd"/><path stroke="#1c4587" stroke-width="1.0" stroke-linejoin="round" stroke-linecap="butt" d="m125.09055 835.24835l0 0c0 -3.8893433 3.1529465 -7.0422974 7.0423203 -7.0422974l375.9626 0c1.8677673 0 3.6589966 0.74194336 4.9796753 2.062622c1.3206787 1.3206787 2.062683 3.1119385 2.062683 4.9796753l0 61.033447c0 3.8894043 -3.1529846 7.0423584 -7.0423584 7.0423584l-375.9626 0c-3.8893738 0 -7.0423203 -3.152954 -7.0423203 -7.0423584z" fill-rule="evenodd"/><path fill="#1c4587" d="m250.77777 872.6851l0 -13.5625l5.359375 0q1.546875 0 2.625 0.59375q1.09375 0.578125 1.65625 1.609375q0.578125 1.03125 0.578125 2.390625q0 1.34375 -0.578125 2.390625q-0.578125 1.03125 -1.6875 1.609375q-1.109375 0.5625 -2.671875 0.5625l-3.40625 0l0 -2.296875l2.953125 0q0.828125 0 1.359375 -0.28125q0.546875 -0.296875 0.8125 -0.796875q0.265625 -0.515625 0.265625 -1.1875q0 -0.671875 -0.265625 -1.171875q-0.265625 -0.515625 -0.8125 -0.796875q-0.546875 -0.28125 -1.375 -0.28125l-1.9375 0l0 11.21875l-2.875 0zm14.6719055 0.1875q-0.984375 0 -1.75 -0.328125q-0.75 -0.34375 -1.1875 -1.015625q-0.4375 -0.671875 -0.4375 -1.6875q0 -0.84375 0.296875 -1.421875q0.3125 -0.578125 0.84375 -0.921875q0.546875 -0.359375 1.234375 -0.53125q0.6875 -0.1875 1.4375 -0.25q0.890625 -0.09375 1.4375 -0.171875q0.546875 -0.09375 0.78125 -0.25q0.25 -0.171875 0.25 -0.5l0 -0.046875q0 -0.625 -0.40625 -0.96875q-0.390625 -0.34375 -1.109375 -0.34375q-0.75 0 -1.203125 0.34375q-0.453125 0.328125 -0.59375 0.828125l-2.625 -0.203125q0.203125 -0.9375 0.78125 -1.609375q0.59375 -0.6875 1.515625 -1.046875q0.921875 -0.375 2.140625 -0.375q0.84375 0 1.625 0.203125q0.78125 0.203125 1.390625 0.625q0.609375 0.40625 0.953125 1.0625q0.359375 0.65625 0.359375 1.5625l0 6.859375l-2.6875 0l0 -1.40625l-0.078125 0q-0.25 0.46875 -0.65625 0.828125q-0.40625 0.359375 -0.984375 0.5625q-0.578125 0.203125 -1.328125 0.203125zm0.8125 -1.9375q0.609375 0 1.078125 -0.25q0.484375 -0.25 0.75 -0.671875q0.28125 -0.421875 0.28125 -0.96875l0 -1.078125q-0.125 0.09375 -0.359375 0.171875q-0.234375 0.0625 -0.515625 0.125q-0.28125 0.046875 -0.5625 0.09375q-0.28125 0.03125 -0.515625 0.0625q-0.5 0.078125 -0.875 0.234375q-0.375 0.15625 -0.578125 0.4375q-0.203125 0.265625 -0.203125 0.65625q0 0.578125 0.421875 0.890625q0.421875 0.296875 1.078125 0.296875zm9.934906 -11.8125l0 13.5625l-2.828125 0l0 -13.5625l2.828125 0zm2.2467651 13.5625l0 -10.171875l2.6875 0l0 1.796875l0.125 0q0.3125 -0.90625 1.046875 -1.421875q0.75 -0.515625 1.78125 -0.515625q1.046875 0 1.78125 0.53125q0.734375 0.515625 0.984375 1.40625l0.109375 0q0.3125 -0.875 1.125 -1.40625q0.828125 -0.53125 1.9375 -0.53125q1.421875 0 2.3125 0.90625q0.890625 0.90625 0.890625 2.5625l0 6.84375l-2.8125 0l0 -6.28125q0 -0.859375 -0.453125 -1.28125q-0.4375 -0.421875 -1.125 -0.421875q-0.765625 0 -1.203125 0.484375q-0.421875 0.484375 -0.421875 1.28125l0 6.21875l-2.734375 0l0 -6.34375q0 -0.75 -0.4375 -1.1875q-0.421875 -0.453125 -1.109375 -0.453125q-0.46875 0 -0.84375 0.234375q-0.375 0.234375 -0.59375 0.65625q-0.21875 0.421875 -0.21875 0.984375l0 6.109375l-2.828125 0zm33.855316 -6.78125q0 2.21875 -0.84375 3.78125q-0.828125 1.546875 -2.265625 2.375q-1.4375 0.8125 -3.234375 0.8125q-1.8125 0 -3.25 -0.8125q-1.4375 -0.828125 -2.28125 -2.390625q-0.828125 -1.5625 -0.828125 -3.765625q0 -2.21875 0.828125 -3.78125q0.84375 -1.5625 2.28125 -2.375q1.4375 -0.8125 3.25 -0.8125q1.796875 0 3.234375 0.8125q1.4375 0.8125 2.265625 2.375q0.84375 1.5625 0.84375 3.78125zm-2.90625 0q0 -1.4375 -0.421875 -2.421875q-0.421875 -1.0 -1.203125 -1.5q-0.78125 -0.515625 -1.8125 -0.515625q-1.046875 0 -1.828125 0.515625q-0.765625 0.5 -1.203125 1.5q-0.421875 0.984375 -0.421875 2.421875q0 1.4375 0.421875 2.421875q0.4375 0.984375 1.203125 1.5q0.78125 0.5 1.828125 0.5q1.03125 0 1.8125 -0.5q0.78125 -0.515625 1.203125 -1.5q0.421875 -0.984375 0.421875 -2.421875zm12.401154 -2.890625q-0.09375 -0.796875 -0.703125 -1.234375q-0.59375 -0.453125 -1.625 -0.453125q-0.703125 0 -1.1875 0.203125q-0.484375 0.1875 -0.734375 0.53125q-0.25 0.34375 -0.25 0.78125q-0.015625 0.375 0.140625 0.640625q0.171875 0.265625 0.46875 0.46875q0.3125 0.1875 0.703125 0.34375q0.390625 0.140625 0.828125 0.234375l1.21875 0.296875q0.890625 0.1875 1.625 0.53125q0.75 0.328125 1.28125 0.8125q0.546875 0.484375 0.84375 1.140625q0.3125 0.65625 0.3125 1.5q0 1.25 -0.625 2.15625q-0.625 0.90625 -1.8125 1.40625q-1.171875 0.5 -2.828125 0.5q-1.640625 0 -2.859375 -0.5q-1.203125 -0.5 -1.890625 -1.484375q-0.671875 -1.0 -0.71875 -2.46875l2.78125 0q0.046875 0.6875 0.390625 1.140625q0.359375 0.453125 0.9375 0.6875q0.59375 0.21875 1.328125 0.21875q0.734375 0 1.265625 -0.203125q0.546875 -0.21875 0.84375 -0.59375q0.296875 -0.375 0.296875 -0.859375q0 -0.46875 -0.265625 -0.78125q-0.265625 -0.3125 -0.78125 -0.53125q-0.515625 -0.21875 -1.25 -0.390625l-1.484375 -0.375q-1.71875 -0.40625 -2.71875 -1.296875q-0.984375 -0.890625 -0.984375 -2.390625q0 -1.234375 0.65625 -2.15625q0.671875 -0.921875 1.828125 -1.4375q1.171875 -0.515625 2.65625 -0.515625q1.515625 0 2.640625 0.515625q1.140625 0.515625 1.765625 1.4375q0.625 0.921875 0.65625 2.125l-2.75 0zm12.871185 9.84375q-1.15625 0 -2.09375 -0.59375q-0.9375 -0.609375 -1.484375 -1.78125q-0.546875 -1.171875 -0.546875 -2.875q0 -1.75 0.5625 -2.90625q0.5625 -1.171875 1.5 -1.75q0.9375 -0.578125 2.0625 -0.578125q0.84375 0 1.421875 0.296875q0.578125 0.28125 0.921875 0.71875q0.359375 0.421875 0.546875 0.828125l0.078125 0l0 -5.09375l2.828125 0l0 13.5625l-2.78125 0l0 -1.625l-0.125 0q-0.203125 0.421875 -0.5625 0.84375q-0.359375 0.40625 -0.9375 0.6875q-0.5625 0.265625 -1.390625 0.265625zm0.890625 -2.25q0.6875 0 1.15625 -0.375q0.484375 -0.375 0.734375 -1.046875q0.25 -0.6875 0.25 -1.59375q0 -0.90625 -0.25 -1.5625q-0.25 -0.671875 -0.734375 -1.03125q-0.46875 -0.375 -1.15625 -0.375q-0.6875 0 -1.171875 0.375q-0.46875 0.375 -0.71875 1.046875q-0.25 0.671875 -0.25 1.546875q0 0.890625 0.25 1.578125q0.25 0.671875 0.71875 1.0625q0.484375 0.375 1.171875 0.375zm11.852417 2.28125q-1.578125 0 -2.703125 -0.640625q-1.125 -0.640625 -1.734375 -1.8125q-0.609375 -1.1875 -0.609375 -2.796875q0 -1.5625 0.609375 -2.75q0.609375 -1.1875 1.71875 -1.84375q1.109375 -0.671875 2.609375 -0.671875q1.0 0 1.875 0.328125q0.875 0.3125 1.515625 0.96875q0.65625 0.640625 1.015625 1.609375q0.375 0.96875 0.375 2.265625l0 0.78125l-8.59375 0l0 -1.75l5.9375 0q0 -0.609375 -0.265625 -1.078125q-0.265625 -0.484375 -0.734375 -0.75q-0.46875 -0.265625 -1.078125 -0.265625q-0.640625 0 -1.140625 0.296875q-0.5 0.296875 -0.78125 0.796875q-0.265625 0.484375 -0.28125 1.09375l0 1.65625q0 0.75 0.28125 1.3125q0.28125 0.546875 0.796875 0.84375q0.515625 0.296875 1.234375 0.296875q0.46875 0 0.859375 -0.125q0.390625 -0.140625 0.671875 -0.40625q0.28125 -0.265625 0.421875 -0.65625l2.609375 0.171875q-0.203125 0.953125 -0.8125 1.65625q-0.609375 0.6875 -1.578125 1.078125q-0.96875 0.390625 -2.21875 0.390625zm15.708893 -10.375l-3.546875 10.171875l-3.1875 0l-3.5625 -10.171875l2.984375 0l2.109375 7.28125l0.109375 0l2.109375 -7.28125l2.984375 0zm1.4471741 10.171875l0 -10.171875l2.828125 0l0 10.171875l-2.828125 0zm1.421875 -11.484375q-0.625 0 -1.078125 -0.421875q-0.453125 -0.421875 -0.453125 -1.015625q0 -0.578125 0.453125 -1.0q0.453125 -0.421875 1.078125 -0.421875q0.625 0 1.0625 0.421875q0.453125 0.421875 0.453125 1.0q0 0.59375 -0.453125 1.015625q-0.4375 0.421875 -1.0625 0.421875zm8.246765 11.6875q-1.5625 0 -2.6875 -0.671875q-1.109375 -0.671875 -1.71875 -1.84375q-0.59375 -1.1875 -0.59375 -2.734375q0 -1.5625 0.59375 -2.75q0.609375 -1.1875 1.734375 -1.84375q1.125 -0.671875 2.65625 -0.671875q1.34375 0 2.34375 0.484375q1.0 0.484375 1.578125 1.359375q0.578125 0.875 0.640625 2.0625l-2.65625 0q-0.109375 -0.765625 -0.59375 -1.234375q-0.484375 -0.46875 -1.265625 -0.46875q-0.65625 0 -1.140625 0.359375q-0.484375 0.34375 -0.765625 1.03125q-0.265625 0.671875 -0.265625 1.625q0 0.984375 0.265625 1.671875q0.28125 0.671875 0.765625 1.03125q0.484375 0.359375 1.140625 0.359375q0.484375 0 0.875 -0.203125q0.390625 -0.203125 0.640625 -0.578125q0.265625 -0.375 0.34375 -0.921875l2.65625 0q-0.0625 1.171875 -0.640625 2.0625q-0.5625 0.875 -1.5625 1.375q-0.984375 0.5 -2.34375 0.5zm11.004883 0q-1.578125 0 -2.7030945 -0.640625q-1.125 -0.640625 -1.734375 -1.8125q-0.609375 -1.1875 -0.609375 -2.796875q0 -1.5625 0.609375 -2.75q0.609375 -1.1875 1.71875 -1.84375q1.1093445 -0.671875 2.6093445 -0.671875q1.0 0 1.875 0.328125q0.875 0.3125 1.515625 0.96875q0.65625 0.640625 1.015625 1.609375q0.375 0.96875 0.375 2.265625l0 0.78125l-8.5937195 0l0 -1.75l5.9374695 0q0 -0.609375 -0.265625 -1.078125q-0.265625 -0.484375 -0.734375 -0.75q-0.46875 -0.265625 -1.078125 -0.265625q-0.640625 0 -1.140625 0.296875q-0.5 0.296875 -0.78125 0.796875q-0.26559448 0.484375 -0.28121948 1.09375l0 1.65625q0 0.75 0.28121948 1.3125q0.28125 0.546875 0.796875 0.84375q0.515625 0.296875 1.234375 0.296875q0.46875 0 0.859375 -0.125q0.390625 -0.140625 0.671875 -0.40625q0.28125 -0.265625 0.421875 -0.65625l2.609375 0.171875q-0.203125 0.953125 -0.8125 1.65625q-0.609375 0.6875 -1.578125 1.078125q-0.96875 0.390625 -2.21875 0.390625z" fill-rule="nonzero"/><path fill="#000000" fill-opacity="0.0" d="m320.11417 779.4895l0 48.724426" fill-rule="evenodd"/><path stroke="#434343" stroke-width="2.0" stroke-linejoin="round" stroke-linecap="butt" d="m320.11417 791.4895l0 24.724426" fill-rule="evenodd"/><path fill="#434343" stroke="#434343" stroke-width="2.0" stroke-linecap="butt" d="m323.41763 791.4895l-3.3034668 -9.076172l-3.3034668 9.076172z" fill-rule="evenodd"/><path fill="#434343" stroke="#434343" stroke-width="2.0" stroke-linecap="butt" d="m316.8107 816.2139l3.3034668 9.076172l3.3034668 -9.076172z" fill-rule="evenodd"/><path fill="#000000" fill-opacity="0.0" d="m35.227036 668.00525l569.76373 0" fill-rule="evenodd"/><path stroke="#999999" stroke-width="2.0" stroke-linejoin="round" stroke-linecap="butt" stroke-dasharray="8.0,6.0" d="m35.227036 668.00525l569.76373 0" fill-rule="evenodd"/><path fill="#000000" fill-opacity="0.0" d="m35.232285 148.66142l569.76373 0" fill-rule="evenodd"/><path stroke="#999999" stroke-width="2.0" stroke-linejoin="round" stroke-linecap="butt" stroke-dasharray="8.0,6.0" d="m35.232285 148.66142l569.76373 0" fill-rule="evenodd"/></g></svg>