<svg version="1.1" viewBox="0.0 0.0 446.93700787401576 672.4750656167979" fill="none" stroke="none" stroke-linecap="square" stroke-miterlimit="10" xmlns:xlink="http://www.w3.org/1999/xlink" xmlns="http://www.w3.org/2000/svg"><clipPath id="p.0"><path d="m0 0l446.937 0l0 672.47504l-446.937 0l0 -672.47504z" clip-rule="nonzero"/></clipPath><g clip-path="url(#p.0)"><path fill="#ffffff" d="m0 0l446.937 0l0 672.47504l-446.937 0z" fill-rule="evenodd"/><path fill="#d9ead3" d="m86.074135 429.55807l0 0c0 -3.8893738 3.152954 -7.042328 7.042328 -7.042328l260.7185 0c1.8677368 0 3.6589966 0.74194336 4.9796753 2.0626526c1.3206787 1.3206787 2.0626526 3.1119385 2.0626526 4.9796753l0 61.033447c0 3.8893738 -3.152954 7.042328 -7.042328 7.042328l-260.7185 0c-3.8893738 0 -7.042328 -3.152954 -7.042328 -7.042328z" fill-rule="evenodd"/><path stroke="#274e13" stroke-width="1.0" stroke-linejoin="round" stroke-linecap="butt" d="m86.074135 429.55807l0 0c0 -3.8893738 3.152954 -7.042328 7.042328 -7.042328l260.7185 0c1.8677368 0 3.6589966 0.74194336 4.9796753 2.0626526c1.3206787 1.3206787 2.0626526 3.1119385 2.0626526 4.9796753l0 61.033447c0 3.8893738 -3.152954 7.042328 -7.042328 7.042328l-260.7185 0c-3.8893738 0 -7.042328 -3.152954 -7.042328 -7.042328z" fill-rule="evenodd"/><path fill="#274e13" d="m215.41876 456.82294q-0.125 -1.015625 -0.96875 -1.5625q-0.84375 -0.5625 -2.078125 -0.5625q-0.90625 0 -1.578125 0.296875q-0.671875 0.28125 -1.046875 0.796875q-0.375 0.515625 -0.375 1.15625q0 0.546875 0.265625 0.9375q0.265625 0.390625 0.671875 0.640625q0.40625 0.25 0.859375 0.421875q0.453125 0.15625 0.828125 0.25l1.375 0.375q0.53125 0.140625 1.1875 0.390625q0.65625 0.234375 1.25 0.65625q0.609375 0.421875 1.0 1.078125q0.390625 0.65625 0.390625 1.609375q0 1.109375 -0.578125 2.0q-0.578125 0.875 -1.671875 1.40625q-1.09375 0.515625 -2.65625 0.515625q-1.453125 0 -2.515625 -0.46875q-1.0625 -0.46875 -1.671875 -1.3125q-0.609375 -0.84375 -0.6875 -1.953125l1.6875 0q0.078125 0.765625 0.53125 1.265625q0.453125 0.5 1.140625 0.75q0.703125 0.234375 1.515625 0.234375q0.9375 0 1.6875 -0.296875q0.75 -0.3125 1.1875 -0.859375q0.4375 -0.5625 0.4375 -1.296875q0 -0.6875 -0.375 -1.109375q-0.375 -0.421875 -1.0 -0.6875q-0.609375 -0.265625 -1.328125 -0.46875l-1.671875 -0.46875q-1.59375 -0.453125 -2.515625 -1.296875q-0.921875 -0.859375 -0.921875 -2.234375q0 -1.140625 0.609375 -1.984375q0.625 -0.859375 1.671875 -1.328125q1.046875 -0.46875 2.34375 -0.46875q1.3125 0 2.328125 0.46875q1.03125 0.46875 1.625 1.28125q0.609375 0.796875 0.640625 1.828125l-1.59375 0zm4.476944 10.171875l0 -13.5625l1.640625 0l0 12.109375l6.3125 0l0 1.453125l-7.953125 0zm10.494278 0l0 -13.5625l4.59375 0q1.59375 0 2.609375 0.578125q1.015625 0.5625 1.5 1.546875q0.5 0.96875 0.5 2.15625q0 1.203125 -0.5 2.1875q-0.484375 0.984375 -1.5 1.5625q-1.0 0.578125 -2.59375 0.578125l-3.28125 0l0 -1.453125l3.234375 0q1.09375 0 1.75 -0.375q0.671875 -0.390625 0.96875 -1.03125q0.296875 -0.640625 0.296875 -1.46875q0 -0.8125 -0.296875 -1.453125q-0.296875 -0.640625 -0.96875 -1.0q-0.671875 -0.375 -1.78125 -0.375l-2.890625 0l0 12.109375l-1.640625 0z" fill-rule="nonzero"/><path fill="#d9ead3" d="m86.07038 305.7208l0 0c0 -3.8893738 3.152954 -7.042328 7.042328 -7.042328l260.7185 0c1.8677368 0 3.6589966 0.7419739 4.9796753 2.0626526c1.3206787 1.3207092 2.0626526 3.1119385 2.0626526 4.9796753l0 61.033478c0 3.8893738 -3.152954 7.042328 -7.042328 7.042328l-260.7185 0c-3.8893738 0 -7.042328 -3.152954 -7.042328 -7.042328z" fill-rule="evenodd"/><path stroke="#274e13" stroke-width="1.0" stroke-linejoin="round" stroke-linecap="butt" d="m86.07038 305.7208l0 0c0 -3.8893738 3.152954 -7.042328 7.042328 -7.042328l260.7185 0c1.8677368 0 3.6589966 0.7419739 4.9796753 2.0626526c1.3206787 1.3207092 2.0626526 3.1119385 2.0626526 4.9796753l0 61.033478c0 3.8893738 -3.152954 7.042328 -7.042328 7.042328l-260.7185 0c-3.8893738 0 -7.042328 -3.152954 -7.042328 -7.042328z" fill-rule="evenodd"/><path fill="#274e13" d="m200.94432 343.15753l0 -13.5625l4.59375 0q1.59375 0 2.609375 0.578125q1.015625 0.5625 1.5 1.546875q0.5 0.96875 0.5 2.15625q0 1.203125 -0.5 2.1875q-0.484375 0.984375 -1.5 1.5625q-1.0 0.578125 -2.59375 0.578125l-3.28125 0l0 -1.453125l3.234375 0q1.09375 0 1.75 -0.375q0.671875 -0.390625 0.96875 -1.03125q0.296875 -0.640625 0.296875 -1.46875q0 -0.8125 -0.296875 -1.453125q-0.296875 -0.640625 -0.96875 -1.0q-0.671875 -0.375 -1.78125 -0.375l-2.890625 0l0 12.109375l-1.640625 0zm11.029526 0l-1.71875 0l4.96875 -13.5625l1.703125 0l4.984375 13.5625l-1.71875 0l-4.0625 -11.421875l-0.109375 0l-4.046875 11.421875zm0.625 -5.296875l6.953125 0l0 1.453125l-6.953125 0l0 -1.453125zm15.614334 5.296875l-4.1875 0l0 -13.5625l4.375 0q1.96875 0 3.375 0.8125q1.40625 0.8125 2.15625 2.328125q0.75 1.5 0.75 3.609375q0 2.125 -0.765625 3.65625q-0.75 1.515625 -2.203125 2.34375q-1.4375 0.8125 -3.5 0.8125zm-2.546875 -1.453125l2.4375 0q1.6875 0 2.796875 -0.640625q1.109375 -0.65625 1.640625 -1.859375q0.546875 -1.203125 0.546875 -2.859375q0 -1.640625 -0.53125 -2.828125q-0.53125 -1.1875 -1.609375 -1.828125q-1.0625 -0.640625 -2.65625 -0.640625l-2.625 0l0 10.65625zm11.768738 1.453125l0 -13.5625l4.59375 0q1.59375 0 2.609375 0.578125q1.015625 0.5625 1.5 1.546875q0.5 0.96875 0.5 2.15625q0 1.203125 -0.5 2.1875q-0.484375 0.984375 -1.5 1.5625q-1.0 0.578125 -2.59375 0.578125l-3.28125 0l0 -1.453125l3.234375 0q1.09375 0 1.75 -0.375q0.671875 -0.390625 0.96875 -1.03125q0.296875 -0.640625 0.296875 -1.46875q0 -0.8125 -0.296875 -1.453125q-0.296875 -0.640625 -0.96875 -1.0q-0.671875 -0.375 -1.78125 -0.375l-2.890625 0l0 12.109375l-1.640625 0z" fill-rule="nonzero"/><path fill="#000000" fill-opacity="0.0" d="m223.47195 373.7966l0 48.724396" fill-rule="evenodd"/><path stroke="#434343" stroke-width="2.0" stroke-linejoin="round" stroke-linecap="butt" d="m223.47195 385.7966l0 24.724396" fill-rule="evenodd"/><path fill="#434343" stroke="#434343" stroke-width="2.0" stroke-linecap="butt" d="m226.77542 385.7966l-3.3034668 -9.076202l-3.3034668 9.076202z" fill-rule="evenodd"/><path fill="#434343" stroke="#434343" stroke-width="2.0" stroke-linecap="butt" d="m220.16849 410.521l3.3034668 9.076202l3.3034668 -9.076202z" fill-rule="evenodd"/><path fill="#d9ead3" d="m82.338585 181.88353l0 0c0 -3.8893738 3.152954 -7.042328 7.0423203 -7.042328l120.02559 0c1.8677368 0 3.6589813 0.7419586 4.9796753 2.0626526c1.320694 1.320694 2.0626526 3.1119385 2.0626526 4.9796753l0 61.033463c0 3.8893738 -3.152954 7.042328 -7.042328 7.042328l-120.02559 0c-3.8893661 0 -7.0423203 -3.152954 -7.0423203 -7.042328z" fill-rule="evenodd"/><path stroke="#274e13" stroke-width="1.0" stroke-linejoin="round" stroke-linecap="butt" d="m82.338585 181.88353l0 0c0 -3.8893738 3.152954 -7.042328 7.0423203 -7.042328l120.02559 0c1.8677368 0 3.6589813 0.7419586 4.9796753 2.0626526c1.320694 1.320694 2.0626526 3.1119385 2.0626526 4.9796753l0 61.033463c0 3.8893738 -3.152954 7.042328 -7.042328 7.042328l-120.02559 0c-3.8893661 0 -7.0423203 -3.152954 -7.0423203 -7.042328z" fill-rule="evenodd"/><path fill="#274e13" d="m140.95439 209.99214l-1.640625 0q-0.15625 -0.703125 -0.515625 -1.234375q-0.359375 -0.546875 -0.875 -0.90625q-0.5 -0.375 -1.125 -0.5625q-0.625 -0.1875 -1.296875 -0.1875q-1.234375 0 -2.234375 0.625q-1.0 0.625 -1.59375 1.84375q-0.578125 1.203125 -0.578125 2.96875q0 1.765625 0.578125 2.984375q0.59375 1.203125 1.59375 1.828125q1.0 0.625 2.234375 0.625q0.671875 0 1.296875 -0.1875q0.625 -0.1875 1.125 -0.546875q0.515625 -0.375 0.875 -0.90625q0.359375 -0.546875 0.515625 -1.25l1.640625 0q-0.1875 1.03125 -0.6875 1.859375q-0.484375 0.8125 -1.21875 1.390625q-0.71875 0.578125 -1.625 0.875q-0.90625 0.296875 -1.921875 0.296875q-1.75 0 -3.109375 -0.84375q-1.34375 -0.859375 -2.125 -2.421875q-0.765625 -1.5625 -0.765625 -3.703125q0 -2.15625 0.765625 -3.71875q0.78125 -1.5625 2.125 -2.40625q1.359375 -0.84375 3.109375 -0.84375q1.015625 0 1.921875 0.296875q0.90625 0.296875 1.625 0.875q0.734375 0.5625 1.21875 1.390625q0.5 0.8125 0.6875 1.859375zm2.6464844 -4.234375l1.96875 0l4.609375 11.25l0.15625 0l4.609375 -11.25l1.96875 0l0 13.5625l-1.546875 0l0 -10.3125l-0.125 0l-4.25 10.3125l-1.484375 0l-4.234375 -10.3125l-0.125 0l0 10.3125l-1.546875 0l0 -13.5625zm16.589447 13.5625l0 -13.5625l4.59375 0q1.59375 0 2.609375 0.578125q1.015625 0.5625 1.5 1.546875q0.5 0.96875 0.5 2.15625q0 1.203125 -0.5 2.1875q-0.484375 0.984375 -1.5 1.5625q-1.0 0.578125 -2.59375 0.578125l-3.28125 0l0 -1.453125l3.234375 0q1.09375 0 1.75 -0.375q0.671875 -0.390625 0.96875 -1.03125q0.296875 -0.640625 0.296875 -1.46875q0 -0.8125 -0.296875 -1.453125q-0.296875 -0.640625 -0.96875 -1.0q-0.671875 -0.375 -1.78125 -0.375l-2.890625 0l0 12.109375l-1.640625 0z" fill-rule="nonzero"/><path fill="#000000" fill-opacity="0.0" d="m149.3937 249.95932l0 47.40158" fill-rule="evenodd"/><path stroke="#434343" stroke-width="2.0" stroke-linejoin="round" stroke-linecap="butt" d="m149.3937 261.95932l0 23.40158" fill-rule="evenodd"/><path fill="#434343" stroke="#434343" stroke-width="2.0" stroke-linecap="butt" d="m152.69716 261.95932l-3.3034515 -9.076202l-3.3034668 9.076202z" fill-rule="evenodd"/><path fill="#434343" stroke="#434343" stroke-width="2.0" stroke-linecap="butt" d="m146.09024 285.3609l3.3034668 9.076172l3.3034515 -9.076172z" fill-rule="evenodd"/><path fill="#d9ead3" d="m230.47578 181.88353l0 0c0 -3.8893738 3.152954 -7.042328 7.042328 -7.042328l120.02559 0c1.8677368 0 3.658966 0.7419586 4.9796753 2.0626526c1.3206787 1.320694 2.0626526 3.1119385 2.0626526 4.9796753l0 61.033463c0 3.8893738 -3.152954 7.042328 -7.042328 7.042328l-120.02559 0c-3.8893738 0 -7.042328 -3.152954 -7.042328 -7.042328z" fill-rule="evenodd"/><path stroke="#274e13" stroke-width="1.0" stroke-linejoin="round" stroke-linecap="butt" d="m230.47578 181.88353l0 0c0 -3.8893738 3.152954 -7.042328 7.042328 -7.042328l120.02559 0c1.8677368 0 3.658966 0.7419586 4.9796753 2.0626526c1.3206787 1.320694 2.0626526 3.1119385 2.0626526 4.9796753l0 61.033463c0 3.8893738 -3.152954 7.042328 -7.042328 7.042328l-120.02559 0c-3.8893738 0 -7.042328 -3.152954 -7.042328 -7.042328z" fill-rule="evenodd"/><path fill="#274e13" d="m285.4843 219.32027l-4.1875 0l0 -13.5625l4.375 0q1.96875 0 3.375 0.8125q1.40625 0.8125 2.15625 2.328125q0.75 1.5 0.75 3.609375q0 2.125 -0.765625 3.65625q-0.75 1.515625 -2.203125 2.34375q-1.4375 0.8125 -3.5 0.8125zm-2.546875 -1.453125l2.4375 0q1.6875 0 2.796875 -0.640625q1.109375 -0.65625 1.640625 -1.859375q0.546875 -1.203125 0.546875 -2.859375q0 -1.640625 -0.53125 -2.828125q-0.53125 -1.1875 -1.609375 -1.828125q-1.0625 -0.640625 -2.65625 -0.640625l-2.625 0l0 10.65625zm11.768738 1.453125l0 -13.5625l1.640625 0l0 12.109375l6.3125 0l0 1.453125l-7.953125 0zm10.494263 0l0 -13.5625l4.59375 0q1.59375 0 2.609375 0.578125q1.015625 0.5625 1.5 1.546875q0.5 0.96875 0.5 2.15625q0 1.203125 -0.5 2.1875q-0.484375 0.984375 -1.5 1.5625q-1.0 0.578125 -2.59375 0.578125l-3.28125 0l0 -1.453125l3.234375 0q1.09375 0 1.75 -0.375q0.671875 -0.390625 0.96875 -1.03125q0.296875 -0.640625 0.296875 -1.46875q0 -0.8125 -0.296875 -1.453125q-0.296875 -0.640625 -0.96875 -1.0q-0.671875 -0.375 -1.78125 -0.375l-2.890625 0l0 12.109375l-1.640625 0z" fill-rule="nonzero"/><path fill="#000000" fill-opacity="0.0" d="m297.5309 249.95932l0 46.614166" fill-rule="evenodd"/><path stroke="#434343" stroke-width="2.0" stroke-linejoin="round" stroke-linecap="butt" d="m297.5309 261.95932l0 22.614166" fill-rule="evenodd"/><path fill="#434343" stroke="#434343" stroke-width="2.0" stroke-linecap="butt" d="m300.83438 261.95932l-3.3034668 -9.076202l-3.3034668 9.076202z" fill-rule="evenodd"/><path fill="#434343" stroke="#434343" stroke-width="2.0" stroke-linecap="butt" d="m294.22745 284.5735l3.3034668 9.076202l3.3034668 -9.076202z" fill-rule="evenodd"/><path fill="#c9daf8" d="m86.06296 577.3901l0 0c0 -3.8893433 3.152954 -7.0422974 7.0423203 -7.0422974l260.7185 0c1.8677368 0 3.658966 0.74194336 4.9796753 2.062622c1.3206787 1.3206787 2.0626526 3.1119385 2.0626526 4.9796753l0 61.03351c0 3.8893433 -3.152954 7.0422974 -7.042328 7.0422974l-260.7185 0c-3.8893661 0 -7.0423203 -3.152954 -7.0423203 -7.0422974z" fill-rule="evenodd"/><path stroke="#1c4587" stroke-width="1.0" stroke-linejoin="round" stroke-linecap="butt" d="m86.06296 577.3901l0 0c0 -3.8893433 3.152954 -7.0422974 7.0423203 -7.0422974l260.7185 0c1.8677368 0 3.658966 0.74194336 4.9796753 2.062622c1.3206787 1.3206787 2.0626526 3.1119385 2.0626526 4.9796753l0 61.03351c0 3.8893433 -3.152954 7.0422974 -7.042328 7.0422974l-260.7185 0c-3.8893661 0 -7.0423203 -3.152954 -7.0423203 -7.0422974z" fill-rule="evenodd"/><path fill="#1c4587" d="m173.44824 605.15497q-0.09375 -0.796875 -0.703125 -1.234375q-0.59375 -0.453125 -1.625 -0.453125q-0.703125 0 -1.1875 0.203125q-0.484375 0.1875 -0.734375 0.53125q-0.25 0.34375 -0.25 0.78125q-0.015625 0.375 0.140625 0.640625q0.171875 0.265625 0.46875 0.46875q0.3125 0.1875 0.703125 0.34375q0.390625 0.140625 0.828125 0.234375l1.21875 0.296875q0.890625 0.1875 1.625 0.53125q0.75 0.328125 1.28125 0.8125q0.546875 0.484375 0.84375 1.140625q0.3125 0.65625 0.3125 1.5q0 1.25 -0.625 2.15625q-0.625 0.90625 -1.8125 1.40625q-1.171875 0.5 -2.828125 0.5q-1.640625 0 -2.859375 -0.5q-1.203125 -0.5 -1.890625 -1.484375q-0.671875 -1.0 -0.71875 -2.46875l2.78125 0q0.046875 0.6875 0.390625 1.140625q0.359375 0.453125 0.9375 0.6875q0.59375 0.21875 1.328125 0.21875q0.734375 0 1.265625 -0.203125q0.546875 -0.21875 0.84375 -0.59375q0.296875 -0.375 0.296875 -0.859375q0 -0.46875 -0.265625 -0.78125q-0.265625 -0.3125 -0.78125 -0.53125q-0.515625 -0.21875 -1.25 -0.390625l-1.484375 -0.375q-1.71875 -0.40625 -2.71875 -1.296875q-0.984375 -0.890625 -0.984375 -2.390625q0 -1.234375 0.65625 -2.15625q0.671875 -0.921875 1.828125 -1.4375q1.171875 -0.515625 2.65625 -0.515625q1.515625 0 2.640625 0.515625q1.140625 0.515625 1.765625 1.4375q0.625 0.921875 0.65625 2.125l-2.75 0zm9.435577 9.875q-1.578125 0 -2.703125 -0.640625q-1.125 -0.640625 -1.734375 -1.8125q-0.609375 -1.1875 -0.609375 -2.796875q0 -1.5625 0.609375 -2.75q0.609375 -1.1875 1.71875 -1.84375q1.109375 -0.671875 2.609375 -0.671875q1.0 0 1.875 0.328125q0.875 0.3125 1.515625 0.96875q0.65625 0.640625 1.015625 1.609375q0.375 0.96875 0.375 2.265625l0 0.78125l-8.59375 0l0 -1.75l5.9375 0q0 -0.609375 -0.265625 -1.078125q-0.265625 -0.484375 -0.734375 -0.75q-0.46875 -0.265625 -1.078125 -0.265625q-0.640625 0 -1.140625 0.296875q-0.5 0.296875 -0.78125 0.796875q-0.265625 0.484375 -0.28125 1.09375l0 1.65625q0 0.75 0.28125 1.3125q0.28125 0.546875 0.796875 0.84375q0.515625 0.296875 1.234375 0.296875q0.46875 0 0.859375 -0.125q0.390625 -0.140625 0.671875 -0.40625q0.28125 -0.265625 0.421875 -0.65625l2.609375 0.171875q-0.203125 0.953125 -0.8125 1.65625q-0.609375 0.6875 -1.578125 1.078125q-0.96875 0.390625 -2.21875 0.390625zm6.509552 -0.203125l0 -10.171875l2.734375 0l0 1.765625l0.109375 0q0.28125 -0.9375 0.9375 -1.421875q0.65625 -0.5 1.5 -0.5q0.21875 0 0.453125 0.03125q0.25 0.03125 0.4375 0.078125l0 2.5q-0.1875 -0.0625 -0.546875 -0.109375q-0.34375 -0.046875 -0.640625 -0.046875q-0.625 0 -1.109375 0.28125q-0.484375 0.265625 -0.765625 0.75q-0.28125 0.46875 -0.28125 1.09375l0 5.75l-2.828125 0zm7.62558 0l0 -10.171875l2.828125 0l0 10.171875l-2.828125 0zm1.421875 -11.484375q-0.625 0 -1.078125 -0.421875q-0.453125 -0.421875 -0.453125 -1.015625q0 -0.578125 0.453125 -1.0q0.453125 -0.421875 1.078125 -0.421875q0.625 0 1.0625 0.421875q0.453125 0.421875 0.453125 1.0q0 0.59375 -0.453125 1.015625q-0.4375 0.421875 -1.0625 0.421875zm6.559265 11.671875q-0.984375 0 -1.75 -0.328125q-0.75 -0.34375 -1.1875 -1.015625q-0.4375 -0.671875 -0.4375 -1.6875q0 -0.84375 0.296875 -1.421875q0.3125 -0.578125 0.84375 -0.921875q0.546875 -0.359375 1.234375 -0.53125q0.6875 -0.1875 1.4375 -0.25q0.890625 -0.09375 1.4375 -0.171875q0.546875 -0.09375 0.78125 -0.25q0.25 -0.171875 0.25 -0.5l0 -0.046875q0 -0.625 -0.40625 -0.96875q-0.390625 -0.34375 -1.109375 -0.34375q-0.75 0 -1.203125 0.34375q-0.453125 0.328125 -0.59375 0.828125l-2.625 -0.203125q0.203125 -0.9375 0.78125 -1.609375q0.59375 -0.6875 1.515625 -1.046875q0.921875 -0.375 2.140625 -0.375q0.84375 0 1.625 0.203125q0.78125 0.203125 1.390625 0.625q0.609375 0.40625 0.953125 1.0625q0.359375 0.65625 0.359375 1.5625l0 6.859375l-2.6875 0l0 -1.40625l-0.078125 0q-0.25 0.46875 -0.65625 0.828125q-0.40625 0.359375 -0.984375 0.5625q-0.578125 0.203125 -1.328125 0.203125zm0.8125 -1.9375q0.609375 0 1.078125 -0.25q0.484375 -0.25 0.75 -0.671875q0.28125 -0.421875 0.28125 -0.96875l0 -1.078125q-0.125 0.09375 -0.359375 0.171875q-0.234375 0.0625 -0.515625 0.125q-0.28125 0.046875 -0.5625 0.09375q-0.28125 0.03125 -0.515625 0.0625q-0.5 0.078125 -0.875 0.234375q-0.375 0.15625 -0.578125 0.4375q-0.203125 0.265625 -0.203125 0.65625q0 0.578125 0.421875 0.890625q0.421875 0.296875 1.078125 0.296875zm9.934906 -11.8125l0 13.5625l-2.828125 0l0 -13.5625l2.828125 0zm10.322998 13.734375q-1.15625 0 -2.09375 -0.59375q-0.9375 -0.609375 -1.484375 -1.78125q-0.546875 -1.171875 -0.546875 -2.875q0 -1.75 0.5625 -2.90625q0.5625 -1.171875 1.5 -1.75q0.9375 -0.578125 2.0625 -0.578125q0.84375 0 1.421875 0.296875q0.578125 0.28125 0.921875 0.71875q0.359375 0.421875 0.546875 0.828125l0.078125 0l0 -5.09375l2.828125 0l0 13.5625l-2.78125 0l0 -1.625l-0.125 0q-0.203125 0.421875 -0.5625 0.84375q-0.359375 0.40625 -0.9375 0.6875q-0.5625 0.265625 -1.390625 0.265625zm0.890625 -2.25q0.6875 0 1.15625 -0.375q0.484375 -0.375 0.734375 -1.046875q0.25 -0.6875 0.25 -1.59375q0 -0.90625 -0.25 -1.5625q-0.25 -0.671875 -0.734375 -1.03125q-0.46875 -0.375 -1.15625 -0.375q-0.6875 0 -1.171875 0.375q-0.46875 0.375 -0.71875 1.046875q-0.25 0.671875 -0.25 1.546875q0 0.890625 0.25 1.578125q0.25 0.671875 0.71875 1.0625q0.484375 0.375 1.171875 0.375zm11.852417 2.28125q-1.578125 0 -2.703125 -0.640625q-1.125 -0.640625 -1.734375 -1.8125q-0.609375 -1.1875 -0.609375 -2.796875q0 -1.5625 0.609375 -2.75q0.609375 -1.1875 1.71875 -1.84375q1.109375 -0.671875 2.609375 -0.671875q1.0 0 1.875 0.328125q0.875 0.3125 1.515625 0.96875q0.65625 0.640625 1.015625 1.609375q0.375 0.96875 0.375 2.265625l0 0.78125l-8.59375 0l0 -1.75l5.9375 0q0 -0.609375 -0.265625 -1.078125q-0.265625 -0.484375 -0.734375 -0.75q-0.46875 -0.265625 -1.078125 -0.265625q-0.640625 0 -1.140625 0.296875q-0.5 0.296875 -0.78125 0.796875q-0.265625 0.484375 -0.28125 1.09375l0 1.65625q0 0.75 0.28125 1.3125q0.28125 0.546875 0.796875 0.84375q0.515625 0.296875 1.234375 0.296875q0.46875 0 0.859375 -0.125q0.390625 -0.140625 0.671875 -0.40625q0.28125 -0.265625 0.421875 -0.65625l2.609375 0.171875q-0.203125 0.953125 -0.8125 1.65625q-0.609375 0.6875 -1.578125 1.078125q-0.96875 0.390625 -2.21875 0.390625zm15.708893 -10.375l-3.546875 10.171875l-3.1875 0l-3.5625 -10.171875l2.984375 0l2.109375 7.28125l0.109375 0l2.109375 -7.28125l2.984375 0zm1.4471741 10.171875l0 -10.171875l2.828125 0l0 10.171875l-2.828125 0zm1.421875 -11.484375q-0.625 0 -1.078125 -0.421875q-0.453125 -0.421875 -0.453125 -1.015625q0 -0.578125 0.453125 -1.0q0.453125 -0.421875 1.078125 -0.421875q0.625 0 1.0625 0.421875q0.453125 0.421875 0.453125 1.0q0 0.59375 -0.453125 1.015625q-0.4375 0.421875 -1.0625 0.421875zm8.246765 11.6875q-1.5625 0 -2.6875 -0.671875q-1.109375 -0.671875 -1.71875 -1.84375q-0.59375 -1.1875 -0.59375 -2.734375q0 -1.5625 0.59375 -2.75q0.609375 -1.1875 1.734375 -1.84375q1.125 -0.671875 2.65625 -0.671875q1.34375 0 2.34375 0.484375q1.0 0.484375 1.578125 1.359375q0.578125 0.875 0.640625 2.0625l-2.65625 0q-0.109375 -0.765625 -0.59375 -1.234375q-0.484375 -0.46875 -1.265625 -0.46875q-0.65625 0 -1.140625 0.359375q-0.484375 0.34375 -0.765625 1.03125q-0.265625 0.671875 -0.265625 1.625q0 0.984375 0.265625 1.671875q0.28125 0.671875 0.765625 1.03125q0.484375 0.359375 1.140625 0.359375q0.484375 0 0.875 -0.203125q0.390625 -0.203125 0.640625 -0.578125q0.265625 -0.375 0.34375 -0.921875l2.65625 0q-0.0625 1.171875 -0.640625 2.0625q-0.5625 0.875 -1.5625 1.375q-0.984375 0.5 -2.34375 0.5zm11.004913 0q-1.578125 0 -2.703125 -0.640625q-1.125 -0.640625 -1.734375 -1.8125q-0.609375 -1.1875 -0.609375 -2.796875q0 -1.5625 0.609375 -2.75q0.609375 -1.1875 1.71875 -1.84375q1.109375 -0.671875 2.609375 -0.671875q1.0 0 1.875 0.328125q0.875 0.3125 1.515625 0.96875q0.65625 0.640625 1.015625 1.609375q0.375 0.96875 0.375 2.265625l0 0.78125l-8.59375 0l0 -1.75l5.9375 0q0 -0.609375 -0.265625 -1.078125q-0.265625 -0.484375 -0.734375 -0.75q-0.46875 -0.265625 -1.078125 -0.265625q-0.640625 0 -1.140625 0.296875q-0.5 0.296875 -0.78125 0.796875q-0.265625 0.484375 -0.28125 1.09375l0 1.65625q0 0.75 0.28125 1.3125q0.28125 0.546875 0.796875 0.84375q0.515625 0.296875 1.234375 0.296875q0.46875 0 0.859375 -0.125q0.390625 -0.140625 0.671875 -0.40625q0.28125 -0.265625 0.421875 -0.65625l2.609375 0.171875q-0.203125 0.953125 -0.8125 1.65625q-0.609375 0.6875 -1.578125 1.078125q-0.96875 0.390625 -2.21875 0.390625z" fill-rule="nonzero"/><path fill="#000000" fill-opacity="0.0" d="m223.47571 497.63385l0 72.72443" fill-rule="evenodd"/><path stroke="#434343" stroke-width="2.0" stroke-linejoin="round" stroke-linecap="butt" d="m223.47572 509.63385l0 48.724426" fill-rule="evenodd"/><path fill="#434343" stroke="#434343" stroke-width="2.0" stroke-linecap="butt" d="m226.77919 509.63385l-3.3034668 -9.076202l-3.3034668 9.076202z" fill-rule="evenodd"/><path fill="#434343" stroke="#434343" stroke-width="2.0" stroke-linecap="butt" d="m220.17226 558.3583l3.3034668 9.076172l3.3034668 -9.076172z" fill-rule="evenodd"/><path fill="#000000" fill-opacity="0.0" d="m29.10105 533.9908l388.72443 0" fill-rule="evenodd"/><path stroke="#999999" stroke-width="2.0" stroke-linejoin="round" stroke-linecap="butt" stroke-dasharray="8.0,6.0" d="m29.10105 533.9908l388.72443 0" fill-rule="evenodd"/><path fill="#c9daf8" d="m82.3388 34.05151l0 0c0 -3.889368 3.152954 -7.042324 7.0423203 -7.042324l268.15155 0c1.8677368 0 3.6589966 0.7419567 4.9796753 2.0626488c1.3207092 1.3206921 2.0626526 3.1119347 2.0626526 4.9796753l0 61.033466c0 3.8893661 -3.152954 7.0423203 -7.042328 7.0423203l-268.15155 0c-3.8893661 0 -7.0423203 -3.152954 -7.0423203 -7.0423203z" fill-rule="evenodd"/><path stroke="#1c4587" stroke-width="1.0" stroke-linejoin="round" stroke-linecap="butt" d="m82.3388 34.05151l0 0c0 -3.889368 3.152954 -7.042324 7.0423203 -7.042324l268.15155 0c1.8677368 0 3.6589966 0.7419567 4.9796753 2.0626488c1.3207092 1.3206921 2.0626526 3.1119347 2.0626526 4.9796753l0 61.033466c0 3.8893661 -3.152954 7.0423203 -7.042328 7.0423203l-268.15155 0c-3.8893661 0 -7.0423203 -3.152954 -7.0423203 -7.0423203z" fill-rule="evenodd"/><path fill="#1c4587" d="m200.18463 62.67574l-2.90625 0q-0.078125 -0.5625 -0.328125 -1.0q-0.25 -0.453125 -0.640625 -0.765625q-0.375 -0.3125 -0.875 -0.46875q-0.5 -0.171875 -1.078125 -0.171875q-1.046875 0 -1.84375 0.53125q-0.78125 0.515625 -1.21875 1.5q-0.421875 0.984375 -0.421875 2.4062538q0 1.453125 0.4375 2.4375q0.4375 0.984375 1.21875 1.484375q0.78125 0.5 1.8125 0.5q0.578125 0 1.0625 -0.140625q0.5 -0.15625 0.875 -0.453125q0.390625 -0.296875 0.640625 -0.71875q0.265625 -0.421875 0.359375 -0.96875l2.90625 0.015625q-0.125 0.9375 -0.578125 1.796875q-0.4375 0.859375 -1.1875 1.546875q-0.75 0.671875 -1.796875 1.078125q-1.03125 0.390625 -2.328125 0.390625q-1.8125 0 -3.25 -0.8125q-1.421875 -0.828125 -2.25 -2.390625q-0.828125 -1.5625 -0.828125 -3.765625q0 -2.2187538 0.828125 -3.7812538q0.84375 -1.5625 2.265625 -2.375q1.4375 -0.8125 3.234375 -0.8125q1.171875 0 2.1875 0.328125q1.015625 0.328125 1.796875 0.96875q0.78125 0.625 1.265625 1.546875q0.5 0.90625 0.640625 2.09375zm6.5946198 9.015629q-1.53125 0 -2.65625 -0.65625q-1.125 -0.671875 -1.734375 -1.84375q-0.609375 -1.1875 -0.609375 -2.75q0 -1.578125 0.609375 -2.7500038q0.609375 -1.1875 1.734375 -1.84375q1.125 -0.671875 2.65625 -0.671875q1.546875 0 2.671875 0.671875q1.125 0.65625 1.734375 1.84375q0.609375 1.1718788 0.609375 2.7500038q0 1.5625 -0.609375 2.75q-0.609375 1.171875 -1.734375 1.84375q-1.125 0.65625 -2.671875 0.65625zm0.015625 -2.1875q0.703125 0 1.171875 -0.40625q0.46875 -0.40625 0.703125 -1.09375q0.25 -0.703125 0.25 -1.578125q0 -0.890625 -0.25 -1.578125q-0.234375 -0.703125 -0.703125 -1.1093788q-0.46875 -0.40625 -1.171875 -0.40625q-0.703125 0 -1.1875 0.40625q-0.484375 0.4062538 -0.734375 1.1093788q-0.234375 0.6875 -0.234375 1.578125q0 0.875 0.234375 1.578125q0.25 0.6875 0.734375 1.09375q0.484375 0.40625 1.1875 0.40625zm9.6670685 -3.90625l0 5.890625l-2.828125 0l0 -10.171879l2.6875 0l0 1.796875l0.125 0q0.328125 -0.890625 1.125 -1.40625q0.796875 -0.53125 1.9375 -0.53125q1.0625 0 1.84375 0.46875q0.796875 0.46875 1.21875 1.328125q0.4375 0.84375 0.4375 2.0312538l0 6.484375l-2.8125 0l0 -5.96875q0 -0.9375 -0.484375 -1.46875q-0.484375 -0.5312538 -1.328125 -0.5312538q-0.5625 0 -1.0 0.25q-0.4375 0.2500038 -0.6875 0.7187538q-0.234375 0.46875 -0.234375 1.109375zm12.5225525 6.0625q-1.15625 0 -2.09375 -0.59375q-0.9375 -0.609375 -1.484375 -1.78125q-0.546875 -1.171875 -0.546875 -2.875q0 -1.75 0.5625 -2.9062538q0.5625 -1.171875 1.5 -1.75q0.9375 -0.578125 2.0625 -0.578125q0.84375 0 1.421875 0.296875q0.578125 0.28125 0.921875 0.71875q0.359375 0.421875 0.546875 0.828125l0.078125 0l0 -5.09375l2.828125 0l0 13.562504l-2.78125 0l0 -1.625l-0.125 0q-0.203125 0.421875 -0.5625 0.84375q-0.359375 0.40625 -0.9375 0.6875q-0.5625 0.265625 -1.390625 0.265625zm0.890625 -2.25q0.6875 0 1.15625 -0.375q0.484375 -0.375 0.734375 -1.046875q0.25 -0.6875 0.25 -1.59375q0 -0.90625 -0.25 -1.5625q-0.25 -0.671875 -0.734375 -1.0312538q-0.46875 -0.375 -1.15625 -0.375q-0.6875 0 -1.171875 0.375q-0.46875 0.3750038 -0.71875 1.0468788q-0.25 0.671875 -0.25 1.546875q0 0.890625 0.25 1.578125q0.25 0.671875 0.71875 1.0625q0.484375 0.375 1.171875 0.375zm13.743042 -2.25l0 -5.843754l2.8125 0l0 10.171879l-2.703125 0l0 -1.84375l-0.109375 0q-0.34375 0.890625 -1.140625 1.4375q-0.796875 0.53125 -1.9375 0.53125q-1.03125 0 -1.8125 -0.453125q-0.765625 -0.46875 -1.203125 -1.3125q-0.421875 -0.859375 -0.4375 -2.0625l0 -6.468754l2.828125 0l0 5.968754q0 0.90625 0.46875 1.4375q0.484375 0.515625 1.28125 0.515625q0.515625 0 0.953125 -0.234375q0.453125 -0.234375 0.71875 -0.703125q0.28125 -0.46875 0.28125 -1.140625zm5.0694275 4.328125l0 -10.171879l2.828125 0l0 10.171879l-2.828125 0zm1.421875 -11.484379q-0.625 0 -1.078125 -0.421875q-0.453125 -0.421875 -0.453125 -1.015625q0 -0.578125 0.453125 -1.0q0.453125 -0.421875 1.078125 -0.421875q0.625 0 1.0625 0.421875q0.453125 0.421875 0.453125 1.0q0 0.59375 -0.453125 1.015625q-0.4375 0.421875 -1.0625 0.421875zm9.059265 1.3125l0 2.109375l-6.125 0l0 -2.109375l6.125 0zm-4.734375 -2.4375l2.828125 0l0 9.484379q0 0.390625 0.109375 0.609375q0.125 0.203125 0.34375 0.296875q0.21875 0.078125 0.5 0.078125q0.203125 0 0.390625 -0.03125q0.203125 -0.03125 0.3125 -0.046875l0.4375 2.09375q-0.203125 0.0625 -0.59375 0.15625q-0.375 0.09375 -0.9375 0.109375q-1.015625 0.03125 -1.78125 -0.265625q-0.765625 -0.3125 -1.1875 -0.96875q-0.421875 -0.65625 -0.421875 -1.65625l0 -9.859379z" fill-rule="nonzero"/><path fill="#000000" fill-opacity="0.0" d="m223.45691 102.1273l74.078735 72.7244" fill-rule="evenodd"/><path stroke="#434343" stroke-width="2.0" stroke-linejoin="round" stroke-linecap="butt" d="m232.0201 110.533936l56.952347 55.911133" fill-rule="evenodd"/><path fill="#434343" stroke="#434343" stroke-width="2.0" stroke-linecap="butt" d="m234.33435 108.17659l-8.791031 -4.0010147l4.1625214 8.7157135z" fill-rule="evenodd"/><path fill="#434343" stroke="#434343" stroke-width="2.0" stroke-linecap="butt" d="m286.65817 168.80241l8.791046 4.001007l-4.1625366 -8.7157135z" fill-rule="evenodd"/><path fill="#000000" fill-opacity="0.0" d="m29.11155 140.68373l388.72443 0" fill-rule="evenodd"/><path stroke="#999999" stroke-width="2.0" stroke-linejoin="round" stroke-linecap="butt" stroke-dasharray="8.0,6.0" d="m29.11155 140.68373l388.72443 0" fill-rule="evenodd"/></g></svg>